<?xml version="1.0" standalone="no"?>
<!DOCTYPE svg PUBLIC "-//W3C//DTD SVG 20010904//EN"
 "http://www.w3.org/TR/2001/REC-SVG-20010904/DTD/svg10.dtd">
<svg version="1.0" xmlns="http://www.w3.org/2000/svg"
 width="651.000000pt" height="488.000000pt" viewBox="0 0 651.000000 488.000000"
 preserveAspectRatio="xMidYMid meet">

<g transform="translate(0.000000,488.000000) scale(0.100000,-0.100000)"
fill="#000000" stroke="none">
<path d="M1880 3999 c0 -75 -26 -139 -64 -165 -25 -16 -31 -16 -121 6 -162 39
-312 14 -385 -63 -14 -15 -33 -27 -42 -27 -46 0 -108 97 -108 171 0 42 -25 27
-46 -27 -34 -88 1 -196 76 -234 78 -40 60 -51 -34 -21 -68 21 -102 17 -197
-27 l-60 -27 76 -57 c87 -65 128 -78 185 -55 47 18 48 18 56 -97 12 -146 -19
-260 -96 -363 -46 -60 -52 -106 -22 -162 19 -36 72 -71 107 -71 11 0 26 -9 33
-20 22 -36 74 -25 237 46 183 81 222 88 296 48 65 -36 131 -110 193 -216 27
-46 57 -95 67 -110 11 -15 19 -32 19 -38 0 -41 126 -236 189 -291 56 -50 156
-98 233 -113 l60 -11 34 -67 c33 -66 34 -70 34 -192 0 -337 -80 -694 -186
-833 -42 -55 -29 -66 75 -61 79 3 93 6 116 28 54 50 70 109 85 303 18 235 50
354 134 491 l55 89 15 -54 c29 -105 39 -185 40 -329 0 -197 -33 -339 -99 -426
l-24 -31 39 -18 c51 -23 149 -17 188 12 46 34 52 56 52 220 0 137 3 160 27
234 l26 82 -28 126 c-26 114 -29 141 -26 286 1 88 6 185 9 215 l7 55 195 3
c148 2 231 9 345 27 83 13 188 29 235 35 47 6 122 20 168 31 46 10 87 19 91
19 10 0 63 -117 85 -185 23 -73 37 -177 30 -216 -12 -61 -78 -177 -249 -439
-89 -135 -177 -307 -190 -367 -6 -29 -4 -33 22 -40 44 -12 230 -10 243 3 7 7
22 64 35 128 26 130 61 213 127 303 25 34 67 101 94 149 40 72 63 99 130 156
76 64 83 72 103 136 12 37 32 123 46 191 14 69 27 126 29 128 2 2 16 -13 32
-34 15 -21 89 -100 163 -175 l134 -138 -7 -215 c-9 -303 -40 -454 -126 -625
-21 -41 -41 -88 -44 -103 -6 -25 -3 -29 36 -47 47 -21 149 -27 192 -10 19 7
26 19 31 47 3 21 19 84 36 140 24 82 31 126 35 230 7 190 30 374 64 518 l31
129 -58 140 c-54 132 -57 146 -56 217 1 85 24 188 82 377 48 158 68 250 76
367 10 125 -14 315 -52 422 -4 11 8 5 30 -16 84 -79 144 -262 134 -406 -7 -87
-56 -296 -111 -472 -42 -134 -61 -262 -52 -361 6 -71 50 -248 66 -266 5 -5 6
-30 3 -55 -10 -86 50 -171 159 -226 89 -44 104 -44 62 1 -41 43 -44 58 -7 39
15 -8 28 -13 30 -12 1 2 -4 31 -12 65 -27 115 -77 182 -136 182 -25 0 -29 5
-43 53 -8 28 -20 72 -27 97 -8 26 -13 95 -12 165 0 107 5 136 42 275 22 85 57
207 77 270 81 261 85 405 13 555 -48 102 -154 212 -255 265 -26 14 -73 50
-104 81 -82 83 -165 120 -308 138 -94 12 -219 1 -328 -29 -53 -14 -80 -17
-105 -10 -60 16 -467 60 -551 60 -4 0 -5 -6 -2 -14 7 -18 -15 -31 -28 -18 -8
8 -8 15 1 25 9 12 -3 16 -77 26 -127 16 -428 14 -537 -4 -139 -23 -199 -20
-293 15 -98 36 -137 39 -145 10 -6 -23 -27 -27 -27 -5 0 8 -6 15 -14 15 -25 0
-250 -117 -343 -178 -51 -34 -143 -82 -205 -107 -96 -40 -117 -45 -147 -37
l-36 8 60 18 c135 40 205 106 205 192 0 20 -3 23 -17 16 -10 -5 -53 -12 -96
-16 -89 -7 -109 -15 -155 -64 -18 -19 -35 -33 -37 -30 -3 3 8 31 25 63 44 84
38 191 -13 234 -16 12 -17 8 -17 -50z m1450 -104 c0 -8 -7 -15 -15 -15 -8 0
-15 7 -15 15 0 8 7 15 15 15 8 0 15 -7 15 -15z m-595 -16 c0 -7 -8 -15 -17
-17 -18 -3 -25 18 -11 32 10 10 28 1 28 -15z m618 -54 c1 -5 -6 -11 -15 -13
-11 -2 -18 3 -18 13 0 17 30 18 33 0z m-583 -8 c0 -8 -3 -17 -7 -20 -9 -9 -34
13 -27 24 8 14 34 11 34 -4z m1033 -2 c1 -5 -6 -11 -15 -13 -11 -2 -18 3 -18
13 0 17 30 18 33 0z m291 -46 c14 -11 26 -30 26 -41 0 -18 -4 -20 -41 -14 -50
8 -50 -13 -1 -30 41 -13 64 -34 38 -34 -16 0 -16 -1 -1 -16 22 -22 14 -38 -21
-44 l-29 -5 22 -20 c12 -11 29 -26 37 -33 40 -33 -2 -71 -59 -52 -44 15 -51
36 -19 65 l25 24 -25 16 c-39 26 -31 35 22 28 l47 -6 -24 26 c-13 14 -33 27
-45 29 -11 2 -21 10 -21 18 0 8 -4 21 -8 28 -14 21 4 34 44 30 46 -4 49 3 13
31 -15 12 -22 21 -17 21 6 0 22 -9 37 -21z m-716 -12 c2 -10 -3 -17 -12 -17
-18 0 -29 16 -21 31 9 14 29 6 33 -14z m992 -3 c0 -8 -7 -14 -15 -14 -15 0
-21 21 -9 33 10 9 24 -2 24 -19z m-1570 -10 c0 -8 -7 -14 -15 -14 -15 0 -21
21 -9 33 10 9 24 -2 24 -19z m1013 1 c1 -5 -6 -11 -15 -13 -11 -2 -18 3 -18
13 0 17 30 18 33 0z m-415 -58 c2 -10 -3 -17 -12 -17 -18 0 -29 16 -21 31 9
14 29 6 33 -14z m233 0 c19 -13 34 -31 34 -42 0 -17 -8 -21 -47 -23 -72 -5
-61 -31 16 -42 39 -5 64 -30 30 -30 -15 0 -14 -3 6 -25 19 -20 21 -27 10 -40
-7 -8 -23 -15 -36 -15 -33 0 -20 -27 21 -44 37 -16 53 -49 35 -71 -17 -21 -83
-19 -110 3 -26 21 -21 57 10 67 24 8 15 34 -16 46 -13 4 -24 15 -24 22 0 11 9
13 43 6 57 -11 57 -11 57 5 0 18 -60 56 -89 56 -16 0 -21 5 -19 18 1 9 -1 23
-6 30 -16 26 2 42 49 42 52 0 52 10 1 41 -18 11 -24 19 -15 19 9 0 31 -10 50
-23z m715 12 c10 -17 -13 -36 -27 -22 -12 12 -4 33 11 33 5 0 12 -5 16 -11z
m-1520 -10 c10 -17 -13 -36 -27 -22 -12 12 -4 33 11 33 5 0 12 -5 16 -11z
m1004 -13 c0 -20 -19 -31 -32 -18 -6 6 -7 15 -4 21 10 16 36 13 36 -3z m980
-20 c104 -53 64 -168 -60 -170 -50 -1 -51 -1 -82 -55 -25 -45 -28 -58 -19 -73
9 -14 8 -18 -3 -18 -50 0 -60 35 -23 84 42 54 51 77 36 87 -9 5 -25 -1 -44
-15 -53 -40 -75 -49 -91 -35 -19 15 -18 29 2 29 23 0 92 52 98 73 2 10 11 17
18 15 7 -2 38 13 68 32 51 33 53 35 28 38 -19 2 -25 8 -21 18 8 20 41 17 93
-10z m-490 -30 c0 -20 -19 -31 -32 -18 -6 6 -7 15 -4 21 10 16 36 13 36 -3z
m-1474 -7 c10 -17 -13 -36 -27 -22 -12 12 -4 33 11 33 5 0 12 -5 16 -11z m564
-4 c0 -8 -6 -15 -14 -15 -17 0 -28 14 -19 24 12 12 33 6 33 -9z m570 -1 c0
-14 -3 -14 -15 -4 -8 7 -15 14 -15 16 0 2 7 4 15 4 8 0 15 -7 15 -16z m-140
-8 c0 -20 -19 -31 -32 -18 -6 6 -7 15 -4 21 10 16 36 13 36 -3z m-1770 -11 c0
-8 -6 -15 -14 -15 -17 0 -28 14 -19 24 12 12 33 6 33 -9z m1070 -55 c21 0 70
-37 70 -52 0 -6 -7 -19 -16 -29 -14 -16 -14 -18 5 -29 30 -15 27 -48 -5 -60
-33 -13 -91 -3 -98 16 -4 12 5 13 49 8 63 -8 71 3 26 35 -19 14 -45 21 -73 21
-59 0 -118 18 -118 35 0 19 13 19 107 -1 74 -15 103 -14 103 5 0 16 -63 33
-71 19 -6 -9 -11 -9 -23 1 -12 10 -13 17 -6 26 6 7 8 26 5 42 -5 28 -5 28 12
-4 9 -18 24 -33 33 -33z m-1448 23 c14 -16 35 -46 46 -69 38 -75 68 -81 52 -9
-8 37 -6 55 5 43 3 -3 8 -29 12 -57 5 -47 4 -53 -16 -58 -11 -3 -21 -13 -21
-23 0 -21 -25 -44 -39 -36 -5 4 -11 -6 -13 -21 -2 -19 -9 -28 -20 -27 -10 1
-18 -9 -22 -27 -4 -20 -11 -29 -26 -29 -13 0 -25 -11 -34 -35 -21 -50 -68 -49
-95 2 -16 31 -14 69 5 88 27 26 47 0 40 -52 -6 -47 4 -61 28 -37 19 18 20 49
5 93 -6 17 -8 42 -5 56 9 37 51 30 77 -12 21 -33 39 -36 39 -6 0 8 -9 26 -20
40 -27 34 -27 83 0 90 18 5 17 8 -15 48 -19 23 -35 47 -35 54 0 20 25 12 52
-16z m890 -10 c40 -44 52 -71 37 -89 -8 -9 -21 -13 -35 -10 -13 4 -24 1 -26
-6 -2 -6 -12 -9 -21 -5 -9 3 -14 12 -11 20 6 17 -21 43 -30 28 -9 -14 39 -66
74 -81 35 -14 43 -45 9 -35 -18 6 -19 5 -10 -13 22 -41 1 -102 -34 -102 -7 0
-10 -11 -7 -32 3 -22 0 -35 -13 -44 -9 -7 -14 -18 -10 -24 10 -16 -22 -60 -44
-60 -15 0 -18 -7 -17 -37 1 -32 -3 -39 -21 -41 -15 -2 -29 8 -48 32 -33 43
-45 45 -45 9 0 -18 13 -40 37 -65 30 -30 35 -40 25 -50 -10 -10 -32 6 -106 82
-85 88 -104 120 -71 120 7 0 30 -21 51 -47 l39 -48 5 34 c7 49 25 49 70 3 21
-23 41 -38 44 -35 15 15 3 46 -30 83 -48 53 -35 68 22 25 25 -20 50 -33 55
-29 17 10 9 42 -15 57 -35 23 -56 47 -56 63 0 22 16 17 53 -16 19 -16 40 -30
46 -30 24 0 9 40 -23 65 -58 44 -69 119 -18 113 29 -3 45 -38 18 -38 -9 0 -16
5 -16 12 0 6 -3 9 -6 5 -10 -9 6 -47 21 -47 7 0 16 -7 19 -16 7 -19 45 -15 59
7 7 12 5 27 -9 55 -17 35 -28 42 -106 74 -67 26 -88 39 -88 53 0 22 24 17 87
-19 45 -26 64 -31 45 -12 -7 7 -12 25 -12 40 0 21 5 28 19 28 11 0 26 -8 33
-18 12 -17 78 -39 78 -26 0 11 -23 50 -43 72 -11 12 -16 22 -11 22 6 0 22 -12
36 -27z m1724 6 c10 -17 -13 -36 -27 -22 -12 12 -4 33 11 33 5 0 12 -5 16 -11z
m-1436 -13 c0 -20 -19 -31 -32 -18 -6 6 -7 15 -4 21 10 16 36 13 36 -3z m550
0 c0 -8 -4 -17 -8 -20 -13 -8 -35 11 -28 23 10 16 36 14 36 -3z m426 -7 c10
-17 -13 -36 -27 -22 -12 12 -4 33 11 33 5 0 12 -5 16 -11z m-1768 -16 c-4 -22
-22 -20 -26 1 -2 10 3 16 13 16 10 0 15 -7 13 -17z m1433 -28 c-1 -15 -24 -12
-29 3 -3 9 2 13 12 10 10 -1 17 -7 17 -13z m789 -21 c0 -8 -7 -14 -15 -14 -15
0 -21 21 -9 33 10 9 24 -2 24 -19z m-1410 3 c0 -8 -3 -17 -7 -20 -9 -9 -34 13
-27 24 8 14 34 11 34 -4z m540 -1 c0 -20 -19 -31 -32 -18 -6 6 -7 15 -4 21 10
16 36 13 36 -3z m420 -22 c0 -14 -21 -19 -33 -7 -9 9 13 34 24 27 5 -3 9 -12
9 -20z m-1754 5 c10 -17 -13 -36 -27 -22 -12 12 -4 33 11 33 5 0 12 -5 16 -11z
m1955 -5 c49 -9 89 -20 89 -25 0 -5 -5 -9 -12 -9 -6 0 -4 -7 5 -18 37 -40 7
-69 -44 -42 -15 8 -19 7 -19 -4 0 -9 18 -25 40 -36 31 -16 40 -26 40 -46 0
-13 -7 -27 -15 -30 -24 -10 -85 5 -85 21 0 11 7 11 36 3 20 -5 38 -7 42 -4 12
12 -42 56 -69 56 -40 0 -45 17 -15 47 23 23 29 25 52 14 34 -15 43 -6 18 19
-12 12 -47 25 -88 32 -38 7 -71 19 -74 26 -5 15 -8 15 99 -4z m815 -45 c18
-15 18 -48 -1 -69 -14 -15 -10 -20 35 -49 27 -18 50 -36 50 -41 0 -5 -26 -10
-57 -12 -50 -3 -58 -6 -58 -23 0 -18 7 -20 65 -20 51 0 65 -3 65 -15 0 -11
-14 -16 -50 -20 -62 -6 -67 -28 -10 -49 22 -8 42 -19 44 -24 2 -4 14 -12 27
-17 24 -9 33 -30 14 -30 -6 0 -3 -11 6 -25 13 -21 14 -28 4 -41 -10 -12 -26
-14 -69 -9 l-56 6 45 -40 c53 -48 41 -54 -19 -11 -48 35 -58 54 -42 74 9 11
27 13 69 9 l57 -4 -28 25 c-15 14 -37 26 -48 26 -26 0 -59 18 -59 31 0 6 18 8
48 5 l47 -6 -43 14 c-56 18 -75 35 -69 62 2 13 -3 26 -15 33 -39 24 -17 71 38
80 l39 7 -32 17 c-18 9 -49 17 -69 17 -64 0 -95 48 -55 84 36 33 97 40 127 15z
m-1960 0 c10 -17 -13 -36 -27 -22 -12 12 -4 33 11 33 5 0 12 -5 16 -11z m530
0 c10 -17 -13 -36 -27 -22 -12 12 -4 33 11 33 5 0 12 -5 16 -11z m864 -5 c0
-9 -7 -14 -17 -12 -25 5 -28 28 -4 28 12 0 21 -6 21 -16z m-1255 -5 c10 -15
-1 -23 -20 -15 -9 3 -13 10 -10 16 8 13 22 13 30 -1z m-957 -16 c-5 -25 -28
-28 -28 -4 0 12 6 21 16 21 9 0 14 -7 12 -17z m1762 2 c0 -8 -7 -15 -15 -15
-8 0 -15 7 -15 15 0 8 7 15 15 15 8 0 15 -7 15 -15z m-2358 -155 c20 0 23 -11
7 -27 -7 -7 -3 -27 15 -66 15 -35 21 -59 15 -63 -10 -6 -38 22 -39 38 0 13
-58 38 -73 32 -13 -5 -11 -14 9 -60 28 -63 30 -84 9 -84 -8 0 -15 5 -15 11 0
5 -11 34 -23 62 -73 160 -86 207 -58 207 5 0 18 -27 30 -60 l22 -60 30 22 c16
12 29 25 29 30 0 4 -9 30 -20 59 -17 42 -18 54 -8 66 11 13 16 6 32 -46 15
-45 25 -61 38 -61z m1428 99 c0 -24 -23 -21 -28 4 -2 10 3 17 12 17 10 0 16
-9 16 -21z m226 -14 c31 -24 33 -24 79 -9 25 9 49 23 52 30 7 19 19 18 27 -2
9 -23 -9 -42 -47 -49 -56 -11 -67 -16 -67 -30 0 -8 18 -16 51 -20 29 -4 53
-13 56 -21 8 -21 3 -23 -52 -14 -28 5 -54 4 -59 -1 -6 -5 -14 -5 -21 1 -6 5
-35 11 -65 14 -30 4 -49 3 -42 0 14 -7 17 -34 3 -34 -14 0 -50 49 -57 77 -22
85 62 119 142 58z m304 14 c0 -12 -29 -24 -37 -16 -3 4 -3 13 0 21 6 16 37 11
37 -5z m838 4 c-4 -22 -22 -20 -26 1 -2 10 3 16 13 16 10 0 15 -7 13 -17z
m-521 -53 c1 -30 5 -67 8 -82 6 -24 4 -28 -14 -28 -14 0 -26 10 -33 28 -7 15
-13 29 -15 31 -2 2 -23 7 -48 11 -44 7 -45 6 -45 -21 0 -15 -4 -31 -10 -34 -6
-3 -10 4 -10 17 0 34 -11 44 -53 51 -48 8 -67 23 -67 53 0 20 5 24 28 24 25 0
69 -22 83 -42 3 -5 31 -13 62 -18 32 -5 62 -12 67 -15 15 -9 29 37 19 63 -8
19 -6 23 8 20 14 -3 18 -15 20 -58z m-1690 35 c7 -20 -2 -29 -21 -22 -9 4 -13
13 -10 22 8 19 23 19 31 0z m1778 -5 c0 -22 -29 -18 -33 3 -3 14 1 18 15 15
10 -2 18 -10 18 -18z m146 -33 c-1 -12 -15 -9 -19 4 -3 6 1 10 8 8 6 -3 11 -8
11 -12z m-1065 -8 c10 -17 -13 -36 -27 -22 -12 12 -4 33 11 33 5 0 12 -5 16
-11z m1364 -3 c0 -20 -19 -31 -32 -18 -6 6 -7 15 -4 21 10 16 36 13 36 -3z
m-860 -11 c0 -8 -6 -15 -14 -15 -17 0 -28 14 -19 24 12 12 33 6 33 -9z m-1384
-6 c10 -17 -13 -36 -27 -22 -12 12 -4 33 11 33 5 0 12 -5 16 -11z m1800 0 c10
-17 -13 -36 -27 -22 -12 12 -4 33 11 33 5 0 12 -5 16 -11z m165 -19 c29 -16
23 -30 -10 -24 -36 8 -49 -11 -25 -37 23 -26 43 -24 76 8 56 53 160 24 144
-40 -6 -26 -37 -44 -56 -32 -17 11 -11 23 15 29 32 8 32 21 1 41 -22 15 -27
15 -53 1 -15 -9 -40 -26 -54 -37 -28 -23 -57 -20 -84 7 -21 21 -19 71 3 83 21
13 20 13 43 1z m-1065 -31 c10 -17 -13 -36 -27 -22 -12 12 -4 33 11 33 5 0 12
-5 16 -11z m1350 0 c10 -17 -13 -36 -27 -22 -12 12 -4 33 11 33 5 0 12 -5 16
-11z m-870 -10 c10 -17 -13 -36 -27 -22 -12 12 -4 33 11 33 5 0 12 -5 16 -11z
m-1406 -12 c0 -8 -3 -17 -7 -20 -9 -9 -34 13 -27 24 8 14 34 11 34 -4z m1830
-8 c0 -12 -29 -24 -37 -16 -3 4 -3 13 0 21 6 16 37 11 37 -5z m-895 -50 c0 -7
-8 -15 -17 -17 -18 -3 -25 18 -11 32 10 10 28 1 28 -15z m1353 -2 c2 -10 -3
-17 -12 -17 -18 0 -29 16 -21 31 9 14 29 6 33 -14z m-2322 2 c10 -17 -13 -36
-27 -22 -12 12 -4 33 11 33 5 0 12 -5 16 -11z m1439 -9 c0 -22 -29 -18 -33 3
-3 14 1 18 15 15 10 -2 18 -10 18 -18z m418 -15 c1 -5 -6 -11 -15 -13 -11 -2
-18 3 -18 13 0 17 30 18 33 0z m-1619 -26 c30 -36 31 -42 10 -60 -13 -10 -17
-10 -25 2 -5 8 -9 19 -9 25 0 6 -9 19 -20 29 -16 15 -22 15 -35 5 -19 -16 -19
-36 0 -90 20 -57 80 -134 121 -156 32 -17 35 -18 51 -1 11 11 17 31 16 57 -2
52 13 52 22 -1 14 -80 -57 -124 -128 -80 -92 57 -154 224 -103 280 28 31 69
27 100 -10z m-286 -16 c-4 -22 -22 -20 -26 1 -2 10 3 16 13 16 10 0 15 -7 13
-17z m1032 -8 c0 -8 -9 -15 -20 -15 -11 0 -20 7 -20 15 0 8 9 15 20 15 11 0
20 -7 20 -15z m448 -8 c2 -10 -3 -17 -12 -17 -18 0 -29 16 -21 31 9 14 29 6
33 -14z m902 7 c0 -11 -6 -15 -20 -11 -11 3 -20 1 -20 -4 0 -5 -9 -9 -20 -9
-27 0 -25 28 3 33 45 9 57 7 57 -9z m-480 -18 c0 -20 -19 -31 -32 -18 -6 6 -7
15 -4 21 10 16 36 13 36 -3z m-1946 -37 c-8 -14 -34 -11 -34 4 0 8 3 17 7 20
9 9 34 -13 27 -24z m2316 18 c0 -8 -3 -17 -7 -20 -9 -9 -34 13 -27 24 8 14 34
11 34 -4z m-1230 -32 c0 -8 -9 -15 -20 -15 -20 0 -26 11 -13 23 12 13 33 7 33
-8z m1163 8 c9 -9 -13 -34 -24 -27 -14 8 -11 34 4 34 8 0 17 -3 20 -7z m197
-9 c0 -9 -7 -14 -17 -12 -25 5 -28 28 -4 28 12 0 21 -6 21 -16z m-930 -9 c0
-8 -6 -15 -14 -15 -17 0 -28 14 -19 24 12 12 33 6 33 -9z m-1570 -21 c0 -8 -7
-14 -15 -14 -15 0 -21 21 -9 33 10 9 24 -2 24 -19z m1996 15 c10 -17 -13 -36
-27 -22 -12 12 -4 33 11 33 5 0 12 -5 16 -11z m244 -14 c0 -8 -6 -15 -14 -15
-17 0 -28 14 -19 24 12 12 33 6 33 -9z m-70 -30 c0 -8 -7 -15 -15 -15 -8 0
-15 7 -15 15 0 8 7 15 15 15 8 0 15 -7 15 -15z m350 -11 c0 -14 -21 -19 -33
-7 -9 9 13 34 24 27 5 -3 9 -12 9 -20z m-1370 2 c0 -20 -19 -31 -32 -18 -6 6
-7 15 -4 21 10 16 36 13 36 -3z m-1196 -4 c8 -13 -11 -35 -23 -28 -16 10 -14
36 3 36 8 0 17 -4 20 -8z m1599 -7 c1 -5 -6 -11 -15 -13 -11 -2 -18 3 -18 13
0 17 30 18 33 0z m443 4 c10 -17 -13 -36 -27 -22 -12 12 -4 33 11 33 5 0 12
-5 16 -11z m109 -10 c0 -7 -8 -15 -17 -17 -18 -3 -25 18 -11 32 10 10 28 1 28
-15z m-69 -20 c10 -17 -13 -36 -27 -22 -12 12 -4 33 11 33 5 0 12 -5 16 -11z
m508 -40 c-8 -14 -34 -11 -34 4 0 8 3 17 7 20 9 9 34 -13 27 -24z m-1388 10
c10 -17 -13 -36 -27 -22 -12 12 -4 33 11 33 5 0 12 -5 16 -11z m814 -2 c0 -8
-3 -17 -7 -20 -9 -9 -34 13 -27 24 8 14 34 11 34 -4z m-432 -9 c-7 -19 -38
-22 -38 -4 0 10 9 16 21 16 12 0 19 -5 17 -12z m362 -24 c0 -8 -7 -14 -15 -14
-15 0 -21 21 -9 33 10 9 24 -2 24 -19z m-65 -24 c0 -22 -29 -18 -33 3 -3 14 1
18 15 15 10 -2 18 -10 18 -18z m585 -13 c0 -40 8 -51 26 -36 18 15 36 1 29
-22 -4 -10 -2 -26 3 -36 9 -15 12 -13 25 17 12 27 16 30 16 14 1 -12 -8 -32
-18 -45 l-20 -24 -21 23 c-17 18 -19 26 -10 37 9 10 9 15 1 15 -13 0 -25 -44
-18 -65 4 -8 2 -17 -3 -20 -6 -4 -10 -1 -10 6 0 6 -8 1 -18 -11 -23 -28 -42
-19 -42 21 0 16 -4 29 -10 29 -12 0 -23 -40 -18 -66 2 -10 -1 -19 -7 -20 -5 0
-18 -4 -28 -9 -10 -4 -21 -5 -24 -1 -3 3 -11 -2 -18 -11 -31 -42 -62 27 -35
78 8 15 39 28 40 17 0 -2 7 -21 14 -43 l14 -40 11 28 c6 16 11 38 11 50 0 14
10 26 25 33 29 14 41 4 47 -41 l4 -30 14 28 c11 22 11 41 4 88 -6 33 -8 62 -5
64 12 13 21 2 21 -28z m-430 8 c0 -8 -6 -15 -14 -15 -17 0 -28 14 -19 24 12
12 33 6 33 -9z m580 1 c0 -20 -19 -31 -32 -18 -6 6 -7 15 -4 21 10 16 36 13
36 -3z m-1412 -19 c2 -10 -3 -17 -12 -17 -18 0 -29 16 -21 31 9 14 29 6 33
-14z m356 -8 c-8 -14 -34 -11 -34 4 0 8 3 17 7 20 9 9 34 -13 27 -24z m252 20
c10 -17 -13 -36 -27 -22 -12 12 -4 33 11 33 5 0 12 -5 16 -11z m-70 -20 c10
-17 -13 -36 -27 -22 -12 12 -4 33 11 33 5 0 12 -5 16 -11z m-70 -20 c10 -17
-13 -36 -27 -22 -12 12 -4 33 11 33 5 0 12 -5 16 -11z m984 -13 c0 -21 -21
-31 -30 -15 -5 7 -6 17 -4 21 9 14 34 9 34 -6z m-1054 -7 c10 -17 -13 -36 -27
-22 -12 12 -4 33 11 33 5 0 12 -5 16 -11z m429 -9 c0 -22 -29 -18 -33 3 -3 14
1 18 15 15 10 -2 18 -10 18 -18z m-497 -13 c2 -12 -3 -17 -17 -17 -12 0 -21 6
-21 13 0 31 32 34 38 4z m-325 -2 c1 -5 -6 -11 -15 -13 -11 -2 -18 3 -18 13 0
17 30 18 33 0z m1011 -12 c13 -72 17 -143 7 -143 -5 0 -13 17 -16 38 -3 20 -9
56 -14 79 -4 24 -6 45 -3 48 12 11 21 4 26 -22z m-761 2 c1 -5 -6 -11 -15 -13
-11 -2 -18 3 -18 13 0 17 30 18 33 0z m-73 -15 c0 -11 -7 -20 -15 -20 -8 0
-15 9 -15 20 0 11 7 20 15 20 8 0 15 -9 15 -20z m780 -19 c0 -22 5 -42 13 -44
9 -4 9 -8 -1 -15 -9 -6 -13 -27 -11 -63 2 -42 0 -54 -11 -54 -11 0 -16 14 -18
48 -3 51 -4 52 -34 36 -16 -9 -19 -8 -16 3 2 7 17 19 31 26 21 10 27 20 27 46
0 43 -7 48 -41 30 -31 -15 -37 -29 -16 -37 9 -4 9 -7 -1 -18 -10 -11 -15 -10
-30 5 -16 16 -15 19 16 47 20 18 43 29 62 29 28 0 30 -2 30 -39z m-853 14 c7
-20 -2 -29 -21 -22 -9 4 -13 13 -10 22 8 19 23 19 31 0z m1381 -2 c-4 -22 -22
-20 -26 1 -2 10 3 16 13 16 10 0 15 -7 13 -17z m-1450 -16 c2 -10 -3 -17 -12
-17 -18 0 -29 16 -21 31 9 14 29 6 33 -14z m-72 2 c10 -17 -13 -36 -27 -22
-12 12 -4 33 11 33 5 0 12 -5 16 -11z m844 -15 c0 -8 -7 -14 -15 -14 -15 0
-21 21 -9 33 10 9 24 -2 24 -19z m-910 -5 c0 -12 -29 -24 -37 -16 -3 4 -3 13
0 21 6 16 37 11 37 -5z m-80 -9 c0 -11 -7 -20 -15 -20 -8 0 -15 9 -15 20 0 11
7 20 15 20 8 0 15 -9 15 -20z m-794 -1 c10 -17 -13 -36 -27 -22 -12 12 -4 33
11 33 5 0 12 -5 16 -11z m724 -2 c0 -8 -3 -17 -7 -20 -9 -9 -34 13 -27 24 8
14 34 11 34 -4z m260 -13 c0 -14 -21 -19 -33 -7 -9 9 13 34 24 27 5 -3 9 -12
9 -20z m1528 3 c2 -10 -3 -17 -12 -17 -18 0 -29 16 -21 31 9 14 29 6 33 -14z
m-2442 2 c10 -17 -13 -36 -27 -22 -12 12 -4 33 11 33 5 0 12 -5 16 -11z m510
0 c10 -17 -13 -36 -27 -22 -12 12 -4 33 11 33 5 0 12 -5 16 -11z m74 -5 c0 -9
-7 -14 -17 -12 -25 5 -28 28 -4 28 12 0 21 -6 21 -16z m-512 -11 c-4 -22 -22
-20 -26 1 -2 10 3 16 13 16 10 0 15 -7 13 -17z m77 -3 c0 -22 -29 -18 -33 3
-3 14 1 18 15 15 10 -2 18 -10 18 -18z m71 9 c10 -17 -13 -36 -27 -22 -12 12
-4 33 11 33 5 0 12 -5 16 -11z m74 -3 c0 -8 -5 -18 -11 -22 -14 -8 -33 11 -25
25 10 16 36 13 36 -3z m68 -3 c-4 -22 -22 -20 -26 1 -2 10 3 16 13 16 10 0 15
-7 13 -17z m75 10 c9 -9 -13 -34 -24 -27 -14 8 -11 34 4 34 8 0 17 -3 20 -7z
m1930 -10 c9 -9 -13 -34 -24 -27 -14 8 -11 34 4 34 8 0 17 -3 20 -7z m-937
-28 c4 -8 16 -15 28 -16 19 -1 19 -1 -3 -8 -17 -5 -27 -18 -37 -51 -9 -29 -10
-48 -4 -54 12 -12 26 0 48 45 10 21 26 35 40 37 27 4 28 -8 2 -41 -11 -14 -20
-28 -20 -31 0 -14 26 -4 53 22 32 29 28 12 -6 -25 -21 -24 -67 -31 -67 -11 0
6 -8 4 -20 -7 -20 -18 -50 -14 -50 7 0 7 -9 2 -19 -12 -16 -20 -22 -22 -35
-11 -10 9 -13 22 -9 43 5 24 3 30 -8 26 -19 -6 -24 -49 -8 -59 10 -6 9 -9 -4
-15 -31 -12 -42 11 -26 53 12 30 20 38 39 38 22 0 26 -6 30 -40 l5 -39 18 26
c9 15 17 41 17 58 0 24 -4 30 -22 31 -23 2 -23 2 1 6 13 3 26 13 28 24 6 23
21 25 29 4z m279 -6 c0 -7 -8 -15 -17 -17 -18 -3 -25 18 -11 32 10 10 28 1 28
-15z m795 6 c0 -8 -9 -15 -20 -15 -11 0 -20 7 -20 15 0 8 9 15 20 15 11 0 20
-7 20 -15z m520 -11 c0 -14 -21 -19 -33 -7 -9 9 13 34 24 27 5 -3 9 -12 9 -20z
m-2430 -4 c0 -11 -7 -20 -15 -20 -8 0 -15 9 -15 20 0 11 7 20 15 20 8 0 15 -9
15 -20z m320 -6 c0 -14 -21 -19 -33 -7 -9 9 13 34 24 27 5 -3 9 -12 9 -20z
m308 -18 c6 -31 -19 -73 -54 -92 -23 -12 -34 -26 -34 -40 0 -32 -10 -54 -24
-54 -10 0 -9 16 0 73 16 88 17 110 5 102 -16 -9 -22 12 -7 25 42 34 106 26
114 -14z m1217 24 c0 -22 -29 -18 -33 3 -3 14 1 18 15 15 10 -2 18 -10 18 -18z
m-1168 -3 c-3 -8 -8 -44 -12 -80 -8 -71 -25 -102 -25 -45 0 75 13 138 27 138
9 0 13 -6 10 -13z m1043 -10 c0 -8 -3 -17 -7 -20 -9 -9 -34 13 -27 24 8 14 34
11 34 -4z m-2161 -29 c14 -24 14 -28 -2 -46 -10 -11 -19 -30 -20 -42 -1 -13
-12 -26 -27 -33 l-25 -11 23 -4 c13 -2 30 2 38 9 8 6 18 9 22 5 4 -4 -4 -16
-18 -26 l-25 -20 27 0 c15 0 30 5 33 10 3 6 15 10 26 10 15 0 17 -4 10 -17 -5
-10 -12 -26 -15 -35 -3 -10 -14 -18 -25 -18 -22 0 -37 17 -26 28 4 4 10 1 12
-5 7 -19 23 -16 23 3 0 13 -7 15 -28 11 -31 -6 -58 5 -48 21 3 6 -4 12 -16 14
-13 2 -23 10 -23 18 0 8 10 16 23 18 12 2 20 7 17 12 -3 5 -19 7 -35 4 -35 -7
-84 19 -100 54 -14 33 -4 39 77 48 37 4 60 10 57 16 -4 6 2 8 12 6 10 -2 25
-15 33 -30z m2406 12 c0 -22 -29 -18 -33 3 -3 14 1 18 15 15 10 -2 18 -10 18
-18z m405 -5 c0 -8 -6 -15 -14 -15 -17 0 -28 14 -19 24 12 12 33 6 33 -9z
m-342 -22 c-4 -22 -22 -20 -26 1 -2 10 3 16 13 16 10 0 15 -7 13 -17z m-2020
-16 c2 -10 -3 -17 -12 -17 -18 0 -29 16 -21 31 9 14 29 6 33 -14z m1098 12
c10 -17 -13 -36 -27 -22 -12 12 -4 33 11 33 5 0 12 -5 16 -11z m564 -3 c0 -8
-5 -18 -11 -22 -14 -8 -33 11 -25 25 10 16 36 13 36 -3z m195 -6 c0 -22 -29
-18 -33 3 -3 14 1 18 15 15 10 -2 18 -10 18 -18z m-1545 -5 c0 -8 -7 -15 -15
-15 -8 0 -15 7 -15 15 0 8 7 15 15 15 8 0 15 -7 15 -15z m1780 -11 c0 -14 -21
-19 -33 -7 -9 9 13 34 24 27 5 -3 9 -12 9 -20z m208 9 c-4 -22 -22 -20 -26 1
-2 10 3 16 13 16 10 0 15 -7 13 -17z m-138 -19 c0 -14 -21 -19 -33 -7 -9 9 13
34 24 27 5 -3 9 -12 9 -20z m68 9 c-4 -22 -22 -20 -26 1 -2 10 3 16 13 16 10
0 15 -7 13 -17z m-631 -18 c7 -20 -2 -29 -21 -22 -9 4 -13 13 -10 22 8 19 23
19 31 0z m-1409 -43 c13 -20 12 -22 -14 -33 l-29 -11 25 -13 c34 -19 16 -18
-53 3 -32 10 -57 23 -55 28 2 5 8 7 13 5 37 -13 45 -13 39 3 -7 18 4 20 40 6
30 -11 33 -4 9 23 -13 14 -14 19 -4 15 8 -2 21 -14 29 -26z m1695 13 c1 -5 -6
-11 -15 -13 -11 -2 -18 3 -18 13 0 17 30 18 33 0z m-2283 -5 c0 -5 -5 -10 -11
-10 -5 0 -7 5 -4 10 3 6 8 10 11 10 2 0 4 -4 4 -10z m393 -5 c1 -5 -6 -11 -15
-13 -11 -2 -18 3 -18 13 0 17 30 18 33 0z m321 7 c8 -13 -11 -35 -23 -28 -16
10 -14 36 3 36 8 0 17 -4 20 -8z m776 -7 c0 -8 -7 -15 -15 -15 -8 0 -15 7 -15
15 0 8 7 15 15 15 8 0 15 -7 15 -15z m447 0 c7 -20 -2 -29 -21 -22 -9 4 -13
13 -10 22 8 19 23 19 31 0z m-1847 -32 c0 -4 -10 -17 -22 -30 -18 -20 -19 -23
-5 -23 9 0 17 -7 17 -15 0 -8 -4 -15 -10 -15 -5 0 -10 5 -10 11 0 5 -5 7 -12
3 -8 -5 -9 -9 -1 -11 6 -2 9 -13 6 -23 -7 -26 -1 -25 31 5 15 14 34 25 42 25
24 0 15 -30 -13 -41 -18 -7 -23 -13 -16 -20 16 -16 48 -2 62 27 10 22 9 29 -6
41 -17 13 -16 14 5 8 15 -4 24 -1 28 9 8 20 24 21 24 1 0 -7 8 -19 18 -25 15
-10 14 -11 -5 -7 -17 4 -27 -3 -43 -28 -11 -18 -20 -35 -20 -39 0 -12 24 -6
44 11 15 13 14 10 -3 -10 -26 -29 -49 -35 -57 -14 -3 9 -16 12 -34 9 -21 -3
-32 1 -36 12 -3 9 -10 13 -16 10 -5 -3 -16 -3 -25 0 -11 5 -12 10 -5 19 6 7 7
18 3 26 -7 11 -11 9 -19 -5 -6 -10 -13 -16 -16 -13 -7 7 74 109 86 109 4 0 8
-3 8 -7z m1788 -16 c2 -10 -3 -17 -12 -17 -18 0 -29 16 -21 31 9 14 29 6 33
-14z m686 10 c23 -17 17 -51 -9 -56 -20 -3 -20 -3 -1 18 17 19 17 21 2 27 -29
11 -46 -3 -46 -40 0 -58 -59 -98 -90 -61 -16 19 -6 45 17 45 13 0 14 -3 5 -12
-17 -17 -15 -28 6 -28 27 0 42 20 42 55 0 34 8 49 30 58 23 8 25 8 44 -6z
m-248 -8 c10 -17 -13 -36 -27 -22 -12 12 -4 33 11 33 5 0 12 -5 16 -11z
m-1928 -26 c2 -8 -5 -13 -17 -13 -12 0 -21 6 -21 16 0 18 31 15 38 -3z m152
-16 c30 -11 50 -22 44 -24 -7 -2 -10 -13 -7 -23 3 -11 1 -20 -3 -20 -5 0 -10
-19 -11 -42 -3 -51 -7 -54 -38 -40 -37 17 -31 -4 8 -28 17 -11 25 -20 17 -20
-27 0 -120 45 -120 58 0 9 8 8 31 -4 29 -14 31 -14 26 0 -8 21 8 29 34 16 32
-18 32 -6 -1 29 -37 38 -31 55 18 47 35 -5 36 -5 16 14 -10 11 -37 25 -58 33
-22 7 -42 20 -44 27 -3 9 1 11 14 6 11 -4 44 -17 74 -29z m170 7 c0 -8 -7 -14
-15 -14 -15 0 -21 21 -9 33 10 9 24 -2 24 -19z m768 3 c2 -10 -3 -17 -12 -17
-10 0 -16 9 -16 21 0 24 23 21 28 -4z m1132 -33 c-7 -7 -21 -16 -33 -20 -21
-7 -21 -7 3 -16 l25 -9 -30 -26 -30 -25 45 5 c25 4 51 2 58 -2 17 -10 6 -36
-21 -49 -20 -10 -19 -11 13 -11 19 -1 48 6 64 14 32 17 46 19 46 6 0 -7 -32
-23 -119 -59 -10 -4 -13 -1 -8 11 3 9 2 17 -3 17 -12 0 -50 37 -50 49 0 5 -10
11 -22 14 l-22 6 24 27 c23 24 23 26 5 22 -11 -3 -29 -9 -40 -13 -26 -10 -14
3 45 48 43 33 73 40 50 11z m-2234 -25 c10 -17 -13 -36 -27 -22 -12 12 -4 33
11 33 5 0 12 -5 16 -11z m334 -15 c0 -14 -21 -19 -33 -7 -9 9 13 34 24 27 5
-3 9 -12 9 -20z m-345 -64 c0 -22 -29 -18 -33 3 -3 14 1 18 15 15 10 -2 18
-10 18 -18z m338 -5 c1 -5 -6 -11 -15 -13 -11 -2 -18 3 -18 13 0 17 30 18 33
0z m-245 -54 c3 -9 -2 -11 -18 -6 -19 6 -21 4 -18 -17 3 -24 6 -25 78 -12 28
4 39 1 54 -14 23 -26 17 -56 -12 -60 -28 -4 -29 14 0 21 18 5 19 8 8 21 -15
19 -33 20 -76 4 -29 -10 -36 -9 -54 7 -11 10 -20 26 -20 35 0 35 47 53 58 21z
m-110 -14 c2 -10 -3 -17 -12 -17 -18 0 -29 16 -21 31 9 14 29 6 33 -14z m340
-4 c-4 -22 -22 -20 -26 1 -2 10 3 16 13 16 10 0 15 -7 13 -17z m2097 7 c4 -6
-7 -13 -24 -16 -31 -7 -39 -18 -21 -29 14 -9 1 -27 -15 -21 -8 3 -19 -1 -25
-9 -9 -11 -6 -14 12 -18 21 -4 20 -4 -4 -6 -30 -1 -46 15 -29 32 17 17 13 29
-9 22 -11 -3 -20 -3 -20 2 0 5 26 18 58 29 71 26 69 26 77 14z m-2449 -61 c10
-17 -13 -36 -27 -22 -12 12 -4 33 11 33 5 0 12 -5 16 -11z m334 -14 c0 -8 -6
-15 -14 -15 -17 0 -28 14 -19 24 12 12 33 6 33 -9z m2210 -45 c0 -11 -7 -20
-15 -20 -8 0 -15 9 -15 20 0 11 7 20 15 20 8 0 15 -9 15 -20z m-2236 -31 c-8
-14 -34 -11 -34 4 0 8 3 17 7 20 9 9 34 -13 27 -24z m-314 5 c0 -9 -7 -14 -17
-12 -25 5 -28 28 -4 28 12 0 21 -6 21 -16z m2526 -35 c10 -17 -13 -36 -27 -22
-12 12 -4 33 11 33 5 0 12 -5 16 -11z m-2258 -22 c2 -10 -3 -17 -12 -17 -18 0
-29 16 -21 31 9 14 29 6 33 -14z m-250 -10 c2 -10 -3 -17 -12 -17 -10 0 -16 9
-16 21 0 24 23 21 28 -4z m2370 -4 c-4 -22 -22 -20 -26 1 -2 10 3 16 13 16 10
0 15 -7 13 -17z m70 0 c-4 -22 -22 -20 -26 1 -2 10 3 16 13 16 10 0 15 -7 13
-17z m-2378 -26 c0 -8 -3 -17 -7 -20 -9 -9 -34 13 -27 24 8 14 34 11 34 -4z
m133 -2 c1 -5 -6 -11 -15 -13 -11 -2 -18 3 -18 13 0 17 30 18 33 0z m-67 -16
c10 -17 -13 -36 -27 -22 -12 12 -4 33 11 33 5 0 12 -5 16 -11z"/>
<path d="M4040 3520 c0 -5 9 -10 20 -10 11 0 20 5 20 10 0 6 -9 10 -20 10 -11
0 -20 -4 -20 -10z"/>
<path d="M4096 3514 c-8 -22 1 -31 16 -16 9 9 9 15 1 23 -7 7 -12 5 -17 -7z"/>
<path d="M3600 3400 c-12 -7 -12 -12 -3 -21 9 -9 16 -9 27 1 26 21 5 39 -24
20z"/>
<path d="M3652 3380 c-10 -16 -10 -20 0 -20 22 0 41 17 34 29 -10 16 -20 14
-34 -9z"/>
<path d="M4743 3598 c-56 -42 -63 -57 -38 -78 34 -28 135 23 135 68 0 16 -29
53 -41 51 -2 0 -28 -18 -56 -41z"/>
<path d="M1690 3440 c0 -11 4 -20 9 -20 5 0 13 -9 16 -20 3 -11 13 -20 21 -20
22 0 18 57 -5 70 -29 15 -41 12 -41 -10z"/>
<path d="M1610 3350 c0 -18 30 -70 40 -70 13 0 13 36 0 61 -11 20 -40 26 -40
9z"/>
<path d="M1530 3273 c0 -10 5 -25 10 -33 8 -12 10 -9 10 12 0 15 -4 30 -10 33
-5 3 -10 -2 -10 -12z"/>
<path d="M4821 3387 c-15 -15 -14 -37 2 -37 14 0 37 19 37 31 0 13 -28 17 -39
6z"/>
<path d="M4768 3379 c-24 -13 -23 -39 1 -39 13 0 19 7 19 25 0 14 -1 25 -2 25
0 0 -9 -5 -18 -11z"/>
<path d="M1446 3171 c-3 -5 3 -11 13 -14 14 -3 18 -1 14 9 -6 16 -19 18 -27 5z"/>
<path d="M3050 3310 c-20 -5 -25 -12 -25 -35 0 -30 1 -30 61 -33 70 -4 88 12
51 46 -27 23 -54 30 -87 22z"/>
<path d="M3510 3300 c0 -8 24 -20 41 -20 6 0 8 4 5 9 -8 12 -46 21 -46 11z"/>
<path d="M4080 2605 c0 -19 4 -35 9 -35 13 0 23 34 15 54 -11 28 -24 18 -24
-19z"/>
<path d="M3590 2485 c-7 -9 -11 -18 -8 -20 3 -3 11 1 18 10 7 9 11 18 8 20 -3
3 -11 -1 -18 -10z"/>
<path d="M3250 2508 c0 -18 -3 -43 -6 -55 -9 -32 21 -31 41 1 23 35 16 80 -12
84 -20 3 -23 -1 -23 -30z"/>
<path d="M2190 2490 c-21 -13 1 -33 31 -28 32 4 39 38 7 38 -13 0 -30 -5 -38
-10z"/>
<path d="M2130 2482 c-38 -6 -45 -18 -17 -36 37 -25 73 -3 49 29 -4 6 -18 9
-32 7z"/>
<path d="M2176 2431 c-16 -17 -15 -18 9 -13 30 5 40 18 21 25 -8 3 -21 -2 -30
-12z"/>
<path d="M2820 2240 c0 -14 38 -32 45 -21 3 6 -3 15 -14 20 -24 14 -31 14 -31
1z"/>
<path d="M4905 2171 c-10 -17 11 -21 31 -6 18 14 18 14 -3 15 -12 0 -24 -4
-28 -9z"/>
</g>
</svg>
