<?xml version="1.0" standalone="no"?>
<!DOCTYPE svg PUBLIC "-//W3C//DTD SVG 20010904//EN"
 "http://www.w3.org/TR/2001/REC-SVG-20010904/DTD/svg10.dtd">
<svg version="1.0" xmlns="http://www.w3.org/2000/svg"
 width="480.000000pt" height="360.000000pt" viewBox="0 0 480.000000 360.000000"
 preserveAspectRatio="xMidYMid meet">

<g transform="translate(0.000000,360.000000) scale(0.100000,-0.100000)"
fill="#000000" stroke="none">
<path d="M1712 2998 c-17 -17 -24 -20 -34 -10 -16 16 -38 15 -38 0 0 -7 -5
-20 -10 -28 -8 -13 -11 -12 -24 5 -14 19 -15 19 -21 -8 -16 -61 20 -138 74
-158 23 -9 24 -12 9 -20 -9 -5 -20 -23 -23 -40 -4 -18 -27 -51 -54 -77 l-46
-46 60 -8 c33 -4 66 -6 73 -3 16 6 16 6 -13 -58 -28 -61 -25 -87 11 -87 30 0
30 -12 -1 -77 -13 -29 -19 -53 -14 -53 6 0 9 -5 7 -11 -2 -6 -7 -9 -12 -7 -11
4 -36 -47 -52 -107 -18 -64 -18 -236 0 -300 21 -79 64 -154 118 -207 62 -60
131 -102 156 -94 12 4 25 0 33 -10 22 -28 118 -85 146 -88 14 -2 28 -8 31 -13
10 -15 116 -45 120 -34 1 4 19 2 40 -5 40 -14 104 -19 99 -6 -1 4 3 8 8 10 6
2 14 10 18 18 4 8 14 14 21 14 14 0 26 21 26 46 0 8 -7 14 -15 14 -8 0 -15 5
-15 11 0 5 4 8 8 5 12 -7 26 6 39 37 7 15 19 27 28 27 21 0 19 -36 -4 -59 -10
-10 -20 -29 -23 -42 -3 -13 -7 -31 -9 -39 -3 -11 4 -14 24 -13 24 2 27 0 16
-13 -7 -9 -19 -12 -28 -8 -18 8 -58 7 -72 -2 -14 -9 43 -74 84 -95 20 -11 37
-24 37 -30 0 -6 4 -8 9 -4 5 3 12 1 15 -4 4 -5 2 -12 -3 -15 -5 -3 -12 -18
-15 -33 -3 -16 -21 -56 -39 -90 l-32 -63 -65 0 c-47 0 -74 -6 -97 -20 -46 -28
-41 -39 11 -27 24 5 52 7 62 3 16 -6 12 -12 -24 -45 -34 -31 -42 -45 -41 -72
0 -30 2 -31 10 -14 10 20 30 35 127 93 92 55 191 68 232 30 20 -18 23 -19 17
-4 -4 10 -7 22 -7 27 0 16 -58 39 -100 39 -48 0 -52 15 -12 47 21 18 23 22 9
23 -16 0 -15 4 7 48 13 26 29 66 35 88 6 22 22 50 35 63 23 22 25 22 55 7 30
-16 31 -16 31 7 0 22 2 23 61 19 l61 -5 -7 32 c-6 30 -6 32 19 25 23 -5 26 -3
26 19 0 18 8 28 29 36 41 18 90 71 97 108 5 25 2 34 -15 45 -26 16 -27 28 -3
28 34 0 140 60 173 97 37 42 79 128 79 161 0 12 -2 22 -4 22 -3 0 -25 -13 -49
-30 -62 -41 -67 -38 -19 14 75 81 107 182 85 266 l-9 34 -32 -46 c-49 -71 -65
-69 -34 5 31 77 42 213 20 267 l-14 34 -23 -61 c-12 -33 -36 -76 -53 -94 -19
-22 -27 -27 -22 -14 40 110 41 192 3 255 l-21 34 -28 -60 c-38 -85 -49 -87
-43 -10 6 72 -20 175 -59 236 l-22 35 -7 -70 c-9 -86 -61 -304 -87 -366 -13
-30 -33 -54 -55 -68 -35 -22 -127 -114 -127 -128 0 -5 28 -38 63 -74 34 -36
70 -81 80 -100 18 -33 18 -33 -17 7 -51 59 -156 128 -261 171 -84 34 -98 37
-215 41 -69 2 -145 -1 -169 -6 -24 -6 -39 -7 -35 -3 13 12 134 51 157 51 16 0
13 7 -17 40 -36 40 -67 100 -108 208 -11 29 -30 65 -44 81 -13 16 -24 40 -24
53 0 13 -5 29 -11 35 -8 8 -8 13 0 17 16 10 14 54 -3 63 -8 4 -15 17 -17 28
-2 11 -14 24 -25 29 -12 5 -26 23 -32 39 -9 24 -16 29 -37 25 -15 -3 -25 -1
-25 7 0 6 -9 20 -21 30 -17 16 -25 17 -50 8 -25 -10 -29 -9 -29 7 0 17 -19 30
-44 30 -6 0 -22 -10 -34 -22z m279 -415 c9 -25 14 -32 17 -20 5 24 30 21 34
-5 5 -32 26 -33 31 -1 4 28 4 28 6 -3 1 -37 -25 -67 -35 -40 -9 23 -26 8 -18
-16 5 -16 3 -20 -8 -16 -8 4 -20 -3 -27 -14 -7 -12 -18 -17 -28 -14 -9 4 -24
-1 -34 -10 -9 -9 -26 -14 -36 -12 -24 4 -25 66 -1 82 21 13 33 3 23 -21 -7
-17 -8 -17 -15 2 -7 16 -8 13 -7 -12 2 -33 19 -44 34 -20 4 6 6 21 5 32 -4 26
21 60 36 51 14 -9 16 -36 3 -36 -5 0 -12 6 -15 13 -3 6 -4 -1 -2 -18 3 -33 23
-40 40 -13 8 13 5 28 -12 63 -24 50 -27 65 -13 65 5 0 15 -17 22 -37z m-117
-19 c4 -9 0 -27 -9 -40 -9 -14 -15 -46 -15 -78 0 -86 -21 -85 -45 3 l-13 46
-1 -62 c-1 -36 -5 -63 -11 -63 -7 0 -10 33 -8 93 3 102 16 119 35 44 18 -75
21 -76 21 -14 0 70 29 115 46 71z m266 -94 c0 -5 -4 -10 -10 -10 -5 0 -10 5
-10 10 0 6 5 10 10 10 6 0 10 -4 10 -10z m-39 -33 c-1 -12 -15 -9 -19 4 -3 6
1 10 8 8 6 -3 11 -8 11 -12z m-31 -26 c0 -6 -4 -13 -10 -16 -5 -3 -10 1 -10 9
0 9 5 16 10 16 6 0 10 -4 10 -9z m-43 -37 c-9 -9 -28 6 -21 18 4 6 10 6 17 -1
6 -6 8 -13 4 -17z m-43 -15 c-3 -5 -10 -7 -15 -3 -5 3 -7 10 -3 15 3 5 10 7
15 3 5 -3 7 -10 3 -15z m-48 -26 c-10 -10 -19 5 -10 18 6 11 8 11 12 0 2 -7 1
-15 -2 -18z m-36 -14 c0 -5 -4 -9 -10 -9 -5 0 -10 7 -10 16 0 8 5 12 10 9 6
-3 10 -10 10 -16z m-49 -2 c-1 -12 -15 -9 -19 4 -3 6 1 10 8 8 6 -3 11 -8 11
-12z m-140 -20 c-13 -13 -26 -3 -16 12 3 6 11 8 17 5 6 -4 6 -10 -1 -17z m49
8 c0 -8 -4 -15 -10 -15 -5 0 -10 7 -10 15 0 8 5 15 10 15 6 0 10 -7 10 -15z
m50 5 c0 -5 -4 -10 -9 -10 -6 0 -13 5 -16 10 -3 6 1 10 9 10 9 0 16 -4 16 -10z
m110 -20 c0 -5 -4 -10 -10 -10 -5 0 -10 5 -10 10 0 6 5 10 10 10 6 0 10 -4 10
-10z m20 -39 c0 -6 -4 -13 -10 -16 -5 -3 -10 1 -10 9 0 9 5 16 10 16 6 0 10
-4 10 -9z m390 -1 c12 -7 13 -15 3 -39 -6 -17 -9 -40 -6 -51 8 -28 -24 -60
-59 -60 -33 0 -36 16 -13 80 8 23 12 47 9 52 -14 22 38 36 66 18z m-370 -51
c0 -5 -4 -9 -10 -9 -5 0 -10 7 -10 16 0 8 5 12 10 9 6 -3 10 -10 10 -16z m443
-21 c2 -7 0 -21 -5 -30 -12 -24 3 -23 35 2 14 11 30 20 36 20 14 0 14 -27 1
-35 -5 -3 -10 -1 -10 5 0 6 -4 8 -10 5 -5 -3 -10 -13 -10 -21 0 -25 39 -15 80
22 22 20 40 32 40 26 0 -5 -7 -15 -15 -22 -13 -11 -13 -14 2 -26 17 -12 17
-13 1 -19 -9 -4 -19 -13 -22 -22 -5 -12 -1 -14 21 -9 26 5 26 5 6 -6 -31 -15
-53 -4 -46 24 6 23 6 23 -15 4 -12 -11 -22 -14 -22 -8 0 7 -11 12 -25 12 -14
0 -25 5 -25 11 0 6 -6 9 -14 6 -8 -3 -17 -3 -21 1 -3 4 -14 7 -22 7 -25 0 -26
22 -4 44 24 24 37 26 44 9z m-423 -18 c0 -5 -4 -10 -10 -10 -5 0 -10 5 -10 10
0 6 5 10 10 10 6 0 10 -4 10 -10z m86 -37 c-10 -10 -19 5 -10 18 6 11 8 11 12
0 2 -7 1 -15 -2 -18z m-321 3 c17 -1 36 -5 43 -9 17 -12 15 -62 -4 -78 -14
-11 -21 -11 -45 3 -25 15 -32 15 -56 3 l-28 -15 30 -1 c17 -1 36 -2 44 -3 17
-1 28 -26 12 -26 -6 0 -11 -7 -11 -16 0 -12 -7 -14 -32 -9 -31 6 -32 5 -14 -9
10 -9 22 -13 27 -11 12 8 59 -17 59 -32 0 -7 -9 -13 -19 -13 -23 0 -37 17 -19
23 7 2 2 2 -12 0 -33 -6 -35 -10 -20 -28 7 -9 29 -15 51 -15 21 0 40 -4 43 -9
11 -17 -5 -39 -32 -46 -24 -7 -25 -8 -7 -15 10 -4 38 -1 61 6 22 7 47 9 54 4
7 -4 21 -5 33 -2 16 4 19 2 14 -11 -3 -9 -2 -19 3 -22 6 -4 10 -11 10 -17 0
-6 -6 -6 -15 2 -13 11 -22 9 -50 -6 -46 -24 -47 -49 -2 -40 25 4 28 3 14 -5
-22 -13 -59 -8 -64 8 -3 7 10 26 27 42 18 16 27 31 22 35 -16 10 -36 -2 -47
-27 -13 -29 -49 -29 -53 1 -2 12 -10 22 -18 22 -8 0 -14 6 -14 14 0 7 -7 19
-15 26 -8 7 -12 17 -9 22 3 5 -2 15 -11 22 -9 7 -15 21 -13 32 2 10 -3 24 -11
30 -24 19 -6 45 26 39 27 -6 27 -6 9 9 -11 9 -25 16 -32 16 -22 0 -64 60 -64
92 l0 31 53 -8 c28 -5 66 -9 82 -9z m285 3 c0 -6 -6 -9 -14 -6 -8 3 -17 -1
-20 -8 -3 -8 -12 -12 -21 -9 -22 9 -18 22 8 27 40 8 47 7 47 -4z m90 -9 c0 -5
-4 -10 -9 -10 -6 0 -13 5 -16 10 -3 6 1 10 9 10 9 0 16 -4 16 -10z m40 -10 c0
-5 -4 -10 -10 -10 -5 0 -10 5 -10 10 0 6 5 10 10 10 6 0 10 -4 10 -10z m-210
-20 c0 -5 -4 -10 -10 -10 -5 0 -10 5 -10 10 0 6 5 10 10 10 6 0 10 -4 10 -10z
m260 0 c0 -5 -7 -10 -15 -10 -8 0 -15 5 -15 10 0 6 7 10 15 10 8 0 15 -4 15
-10z m40 -20 c0 -5 -4 -10 -10 -10 -5 0 -10 5 -10 10 0 6 5 10 10 10 6 0 10
-4 10 -10z m41 -23 c-13 -13 -26 -3 -16 12 3 6 11 8 17 5 6 -4 6 -10 -1 -17z
m-377 -22 c-9 -14 -21 -22 -27 -18 -6 4 -3 11 8 20 11 7 15 13 11 13 -4 0 -4
5 -1 10 4 6 11 8 16 5 5 -4 2 -17 -7 -30z m426 15 c0 -5 -7 -10 -16 -10 -8 0
-12 5 -9 10 3 6 10 10 16 10 5 0 9 -4 9 -10z m41 -13 c-1 -12 -15 -9 -19 4 -3
6 1 10 8 8 6 -3 11 -8 11 -12z m49 -6 c0 -6 -4 -13 -10 -16 -5 -3 -10 1 -10 9
0 9 5 16 10 16 6 0 10 -4 10 -9z m-230 -29 c0 -40 -27 -138 -46 -168 -20 -30
-46 -28 -54 5 l-5 23 -14 -26 c-16 -29 -46 -35 -55 -10 -16 42 1 175 25 190
18 11 18 0 3 -53 -16 -56 -16 -130 1 -125 14 3 43 90 44 129 1 30 16 52 27 40
3 -3 0 -32 -6 -65 -8 -40 -9 -70 -3 -89 l10 -28 18 35 c10 19 20 65 23 102 3
49 9 68 18 68 9 0 14 -11 14 -28z m274 7 c-3 -5 -10 -7 -15 -3 -5 3 -7 10 -3
15 3 5 10 7 15 3 5 -3 7 -10 3 -15z m46 1 c0 -5 -4 -10 -10 -10 -5 0 -10 5
-10 10 0 6 5 10 10 10 6 0 10 -4 10 -10z m-270 -10 c0 -5 -4 -10 -10 -10 -5 0
-10 5 -10 10 0 6 5 10 10 10 6 0 10 -4 10 -10z m320 0 c0 -5 -4 -10 -10 -10
-5 0 -10 5 -10 10 0 6 5 10 10 10 6 0 10 -4 10 -10z m45 -10 c-3 -5 -10 -10
-16 -10 -5 0 -9 5 -9 10 0 6 7 10 16 10 8 0 12 -4 9 -10z m45 -5 c0 -8 -4 -15
-10 -15 -5 0 -10 7 -10 15 0 8 5 15 10 15 6 0 10 -7 10 -15z m-750 -5 c0 -5
-4 -10 -10 -10 -5 0 -10 5 -10 10 0 6 5 10 10 10 6 0 10 -4 10 -10z m800 0 c0
-5 -7 -10 -16 -10 -8 0 -12 5 -9 10 3 6 10 10 16 10 5 0 9 -4 9 -10z m45 0 c3
-5 -1 -10 -9 -10 -9 0 -16 5 -16 10 0 6 4 10 9 10 6 0 13 -4 16 -10z m45 -6
c0 -8 -4 -12 -10 -9 -5 3 -10 10 -10 16 0 5 5 9 10 9 6 0 10 -7 10 -16z m80
-1 c7 -6 -23 -23 -35 -20 -5 2 -12 12 -13 21 -3 15 1 17 20 11 12 -4 25 -9 28
-12z m-533 -60 c-8 -45 12 -40 35 10 16 32 22 36 52 35 32 -1 33 -2 26 -35 -9
-37 -5 -40 22 -16 18 16 18 16 12 0 -3 -10 -15 -22 -24 -27 -12 -6 -23 -31
-30 -65 -12 -60 -23 -73 -45 -55 -23 19 -18 59 12 86 15 14 20 22 10 18 -10
-3 -24 -1 -31 5 -10 8 -16 9 -21 1 -3 -5 -15 -10 -26 -10 -19 0 -20 4 -14 43
l6 42 -21 -24 c-11 -13 -20 -32 -20 -42 0 -10 -4 -19 -10 -19 -5 0 -10 5 -10
12 0 7 -6 6 -17 -4 -10 -9 -24 -13 -30 -11 -22 8 -14 93 8 93 5 0 7 -19 3 -42
l-5 -43 25 28 c14 15 26 35 26 44 0 8 6 13 13 10 8 -3 20 -1 27 3 23 14 33 0
27 -37z m-433 16 c-3 -5 -10 -7 -15 -3 -5 3 -7 10 -3 15 3 5 10 7 15 3 5 -3 7
-10 3 -15z m913 -5 c-9 -9 -28 6 -21 18 4 6 10 6 17 -1 6 -6 8 -13 4 -17z m78
6 c3 -5 -1 -10 -9 -10 -9 0 -16 5 -16 10 0 6 4 10 9 10 6 0 13 -4 16 -10z
m-115 -31 c0 -5 -4 -9 -10 -9 -5 0 -10 7 -10 16 0 8 5 12 10 9 6 -3 10 -10 10
-16z m-865 -9 c3 -5 -1 -10 -9 -10 -9 0 -16 5 -16 10 0 6 4 10 9 10 6 0 13 -4
16 -10z m1005 0 c0 -5 -4 -10 -10 -10 -5 0 -10 5 -10 10 0 6 5 10 10 10 6 0
10 -4 10 -10z m-184 -27 c-10 -10 -19 5 -10 18 6 11 8 11 12 0 2 -7 1 -15 -2
-18z m154 -29 c0 -10 -8 -13 -27 -9 -27 6 -27 6 -8 -10 11 -9 19 -22 17 -29
-1 -7 9 -23 23 -36 30 -29 32 -40 4 -40 -12 0 -23 8 -26 19 -7 28 -27 16 -43
-24 -15 -38 -20 -41 -38 -23 -9 9 -12 9 -12 1 0 -7 5 -15 10 -18 6 -3 10 -11
10 -18 0 -6 -17 6 -39 27 -54 53 -61 24 -8 -31 22 -24 38 -45 35 -49 -4 -3
-23 13 -44 36 -27 29 -39 37 -45 28 -4 -7 -11 -9 -15 -6 -7 8 33 68 45 68 5 0
14 -7 21 -15 10 -12 15 -13 21 -4 6 10 11 10 23 0 13 -11 16 -11 16 2 0 9 -4
19 -10 22 -5 3 -10 11 -10 17 0 6 9 3 20 -7 11 -10 20 -13 20 -7 0 6 -4 14
-10 17 -13 8 -13 42 0 50 6 4 19 1 28 -6 15 -12 15 -12 0 7 -10 11 -18 29 -18
38 0 15 5 17 27 11 24 -6 25 -5 12 12 -13 16 -12 17 4 4 9 -7 17 -20 17 -27z
m-950 16 c0 -5 -4 -10 -10 -10 -5 0 -10 5 -10 10 0 6 5 10 10 10 6 0 10 -4 10
-10z m764 -11 c-3 -5 -10 -7 -15 -3 -5 3 -7 10 -3 15 3 5 10 7 15 3 5 -3 7
-10 3 -15z m236 12 c0 -6 -4 -13 -10 -16 -5 -3 -10 1 -10 9 0 9 5 16 10 16 6
0 10 -4 10 -9z m-270 -31 c0 -5 -7 -10 -15 -10 -8 0 -15 5 -15 10 0 6 7 10 15
10 8 0 15 -4 15 -10z m-700 -10 c0 -5 -4 -10 -10 -10 -5 0 -10 5 -10 10 0 6 5
10 10 10 6 0 10 -4 10 -10z m981 -13 c-13 -13 -26 -3 -16 12 3 6 11 8 17 5 6
-4 6 -10 -1 -17z m-326 3 c3 -5 -1 -10 -9 -10 -9 0 -16 5 -16 10 0 6 4 10 9
10 6 0 13 -4 16 -10z m-625 -20 c0 -5 -4 -10 -10 -10 -5 0 -10 5 -10 10 0 6 5
10 10 10 6 0 10 -4 10 -10z m581 -3 c-1 -12 -15 -9 -19 4 -3 6 1 10 8 8 6 -3
11 -8 11 -12z m-540 -20 c-1 -12 -15 -9 -19 4 -3 6 1 10 8 8 6 -3 11 -8 11
-12z m495 -14 c-10 -10 -19 5 -10 18 6 11 8 11 12 0 2 -7 1 -15 -2 -18z m428
6 c-3 -5 -10 -7 -15 -3 -5 3 -7 10 -3 15 3 5 10 7 15 3 5 -3 7 -10 3 -15z
m-880 -20 c-3 -5 -10 -7 -15 -3 -5 3 -7 10 -3 15 3 5 10 7 15 3 5 -3 7 -10 3
-15z m416 -5 c0 -8 -4 -14 -10 -14 -5 0 -10 9 -10 21 0 11 5 17 10 14 6 -3 10
-13 10 -21z m-47 -9 c-3 -8 -9 -15 -14 -15 -10 0 -12 24 -3 33 11 11 24 -3 17
-18z m-323 7 c0 -14 -11 -21 -26 -15 -8 3 -11 9 -8 14 7 11 34 12 34 1z m280
-12 c0 -21 -15 -27 -25 -10 -7 12 2 30 16 30 5 0 9 -9 9 -20z m-235 0 c3 -5
-1 -10 -9 -10 -9 0 -16 5 -16 10 0 6 4 10 9 10 6 0 13 -4 16 -10z m185 0 c0
-5 -4 -10 -10 -10 -5 0 -10 5 -10 10 0 6 5 10 10 10 6 0 10 -4 10 -10z m185 0
c3 -5 -1 -10 -9 -10 -9 0 -16 5 -16 10 0 6 4 10 9 10 6 0 13 -4 16 -10z m-325
-10 c0 -5 -4 -10 -10 -10 -5 0 -10 5 -10 10 0 6 5 10 10 10 6 0 10 -4 10 -10z
m47 -16 c-9 -9 -28 6 -21 18 4 6 10 6 17 -1 6 -6 8 -13 4 -17z m48 16 c3 -5
-1 -10 -9 -10 -9 0 -16 5 -16 10 0 6 4 10 9 10 6 0 13 -4 16 -10z m275 0 c0
-5 -4 -10 -10 -10 -5 0 -10 5 -10 10 0 6 5 10 10 10 6 0 10 -4 10 -10z m-459
-33 c-13 -13 -26 -3 -16 12 3 6 11 8 17 5 6 -4 6 -10 -1 -17z m239 13 c0 -5
-7 -10 -16 -10 -8 0 -12 5 -9 10 3 6 10 10 16 10 5 0 9 -4 9 -10z m260 -10 c0
-5 -7 -10 -16 -10 -8 0 -12 5 -9 10 3 6 10 10 16 10 5 0 9 -4 9 -10z m-290
-30 c0 -5 -4 -10 -10 -10 -5 0 -10 5 -10 10 0 6 5 10 10 10 6 0 10 -4 10 -10z
m320 1 c0 -6 -4 -13 -10 -16 -5 -3 -10 1 -10 9 0 9 5 16 10 16 6 0 10 -4 10
-9z m-520 -11 c0 -5 -7 -10 -15 -10 -8 0 -15 5 -15 10 0 6 7 10 15 10 8 0 15
-4 15 -10z m190 -30 c0 -5 -7 -10 -16 -10 -8 0 -12 5 -9 10 3 6 10 10 16 10 5
0 9 -4 9 -10z m-209 -23 c-13 -13 -26 -3 -16 12 3 6 11 8 17 5 6 -4 6 -10 -1
-17z m554 13 c-3 -5 -10 -10 -16 -10 -5 0 -9 5 -9 10 0 6 7 10 16 10 8 0 12
-4 9 -10z m-145 -34 c0 -7 -10 -20 -22 -28 -12 -8 -17 -17 -12 -21 6 -3 30 7
54 23 34 23 46 26 61 17 14 -8 15 -15 7 -30 -13 -24 -5 -31 20 -18 26 14 42
14 42 1 0 -6 -6 -10 -12 -8 -26 6 -78 -25 -99 -58 -26 -42 -52 -46 -47 -6 2
16 12 31 24 36 19 8 19 11 6 27 -12 14 -19 15 -33 6 -13 -8 -21 -8 -33 2 -20
17 -20 30 1 53 19 21 43 24 43 4z m-200 -6 c0 -5 -4 -10 -9 -10 -6 0 -13 5
-16 10 -3 6 1 10 9 10 9 0 16 -4 16 -10z m354 -11 c-3 -5 -10 -7 -15 -3 -5 3
-7 10 -3 15 3 5 10 7 15 3 5 -3 7 -10 3 -15z m-579 1 c-3 -5 -10 -10 -16 -10
-5 0 -9 5 -9 10 0 6 7 10 16 10 8 0 12 -4 9 -10z m235 -28 c0 -13 -12 -22 -22
-16 -10 6 -1 24 13 24 5 0 9 -4 9 -8z m324 -63 c-3 -5 -10 -7 -15 -3 -5 3 -7
10 -3 15 3 5 10 7 15 3 5 -3 7 -10 3 -15z m-114 -135 c0 -8 -4 -12 -10 -9 -5
3 -10 10 -10 16 0 5 5 9 10 9 6 0 10 -7 10 -16z"/>
<path d="M2288 2226 c-6 -15 -8 -29 -5 -32 9 -9 37 15 37 32 0 25 -20 25 -32
0z"/>
<path d="M2266 2154 c-9 -23 -7 -44 3 -44 15 0 41 30 41 46 0 19 -36 18 -44
-2z"/>
<path d="M2370 2161 c-7 -15 -7 -21 0 -21 12 0 25 28 17 36 -3 3 -10 -4 -17
-15z"/>
<path d="M1620 2111 c0 -18 40 -52 57 -49 20 4 26 18 15 35 -11 17 -72 29 -72
14z"/>
<path d="M1710 2101 c0 -20 28 -43 50 -39 39 5 34 25 -10 36 -22 5 -40 7 -40
3z"/>
<path d="M1743 1873 c-7 -2 -13 -9 -13 -15 0 -12 41 -6 41 7 1 12 -11 15 -28
8z"/>
<path d="M1780 1785 c0 -8 2 -15 4 -15 2 0 6 7 10 15 3 8 1 15 -4 15 -6 0 -10
-7 -10 -15z"/>
<path d="M2412 1928 c-14 -14 -16 -58 -3 -58 18 0 31 28 23 49 -6 17 -10 19
-20 9z"/>
<path d="M2408 1814 c-5 -4 -8 -19 -8 -33 1 -23 2 -24 11 -8 11 19 9 53 -3 41z"/>
<path d="M2832 1759 c2 -7 10 -15 17 -17 8 -3 12 1 9 9 -2 7 -10 15 -17 17 -8
3 -12 -1 -9 -9z"/>
<path d="M2580 1515 c-16 -19 -3 -40 16 -24 15 13 19 39 5 39 -5 0 -14 -7 -21
-15z"/>
<path d="M2550 1428 c-12 -22 -12 -22 6 -6 10 10 15 20 12 24 -4 3 -12 -5 -18
-18z"/>
<path d="M2070 1462 c0 -25 23 -68 55 -104 48 -53 46 -68 -21 -156 l-32 -42
-94 -4 c-68 -2 -106 -8 -133 -22 -53 -26 -58 -46 -8 -28 42 14 117 17 148 5
17 -7 13 -11 -27 -29 -30 -13 -52 -31 -63 -52 l-16 -31 38 25 c52 33 166 67
236 69 64 1 73 19 13 27 -20 3 -37 8 -36 13 0 4 0 11 0 16 0 5 13 12 30 16 32
7 51 25 26 25 -9 0 -16 4 -16 9 0 21 80 128 103 138 27 12 61 66 50 77 -4 3
-20 6 -37 6 -26 0 -108 19 -193 45 -14 5 -23 3 -23 -3z"/>
</g>
</svg>
