<?xml version="1.0" standalone="no"?>
<!DOCTYPE svg PUBLIC "-//W3C//DTD SVG 20010904//EN"
 "http://www.w3.org/TR/2001/REC-SVG-20010904/DTD/svg10.dtd">
<svg version="1.0" xmlns="http://www.w3.org/2000/svg"
 width="480.000000pt" height="360.000000pt" viewBox="0 0 480.000000 360.000000"
 preserveAspectRatio="xMidYMid meet">

<g transform="translate(0.000000,360.000000) scale(0.100000,-0.100000)"
fill="#000000" stroke="none">
<path d="M3110 2939 c6 -10 33 -30 60 -44 46 -23 65 -45 40 -45 -5 0 -10 -7
-10 -15 0 -17 -12 -19 -26 -5 -16 16 -258 -64 -277 -92 -13 -18 -18 -20 -25
-10 -7 11 -27 8 -100 -14 -56 -17 -92 -33 -92 -41 0 -7 -7 -13 -15 -13 -8 0
-15 4 -15 9 0 5 -46 12 -102 15 -57 4 -200 21 -318 37 -305 42 -418 47 -555
21 -60 -11 -127 -23 -147 -27 -24 -3 -38 -11 -38 -20 0 -8 -7 -15 -15 -15 -8
0 -15 7 -15 15 0 11 -8 13 -32 9 -203 -34 -269 -61 -376 -153 -85 -74 -127
-144 -168 -276 -32 -107 -41 -277 -23 -465 10 -116 36 -256 38 -210 2 40 19 4
26 -55 14 -120 16 -127 31 -114 11 9 15 6 20 -21 4 -19 10 -27 14 -20 4 7 20
-16 40 -57 50 -106 60 -141 60 -210 0 -57 2 -66 21 -70 15 -4 19 -11 16 -25
-3 -12 6 -38 23 -65 16 -25 46 -95 65 -154 33 -97 35 -113 25 -144 -14 -42 -2
-66 57 -119 51 -45 73 -55 117 -56 36 0 38 2 32 25 -7 28 -4 30 25 15 23 -13
24 -8 3 35 -8 18 -33 47 -54 64 -52 42 -81 93 -129 231 -43 120 -48 157 -30
192 8 15 8 22 -1 28 -17 10 -3 31 15 24 8 -3 28 7 46 24 27 25 42 30 101 35
49 4 83 14 113 31 50 30 67 31 217 14 89 -10 119 -10 170 2 35 7 106 14 159
15 85 2 104 5 162 33 36 16 86 49 112 73 25 23 47 40 49 38 1 -2 16 -28 32
-57 29 -56 126 -152 132 -133 6 19 32 12 32 -9 0 -11 12 -26 28 -34 38 -20 98
-87 118 -133 22 -52 30 -226 14 -313 -9 -48 -10 -72 -2 -87 22 -40 84 -108
115 -126 40 -21 77 -22 77 -2 0 12 4 13 19 5 36 -19 44 -13 38 30 -3 24 -23
68 -46 103 -68 105 -84 152 -85 242 -1 44 6 108 14 143 12 53 12 71 1 120 -29
121 -27 133 21 187 24 28 61 74 82 103 30 42 52 59 110 87 101 48 149 86 191
147 19 29 35 47 35 40 0 -28 43 -9 90 40 28 29 50 47 50 40 0 -19 24 -14 49 9
17 16 20 24 10 35 -9 11 -6 16 15 24 14 5 26 15 26 22 0 10 3 10 9 -1 20 -32
58 68 62 164 l1 40 10 -35 c5 -19 14 -53 20 -75 9 -36 11 -38 24 -21 19 27 45
149 51 246 5 71 3 89 -11 102 -32 33 -10 54 34 33 14 -7 49 -18 78 -25 32 -7
69 -25 94 -47 47 -39 71 -39 78 0 l5 29 24 -26 c14 -14 28 -26 32 -26 4 0 21
22 39 50 30 47 31 52 21 100 -14 66 -59 153 -113 219 -64 79 -78 103 -78 134
0 82 -120 187 -255 223 -65 18 -94 17 -149 -1 -42 -14 -49 -14 -111 7 -63 20
-73 21 -168 10 -67 -8 -113 -9 -134 -3 -31 9 -32 8 -23 -10z m480 -139 c-18
-23 -31 -42 -29 -44 2 -2 16 -6 30 -9 22 -6 30 -1 50 28 13 19 30 35 37 35 18
0 15 -8 -14 -42 -14 -17 -23 -37 -20 -44 3 -9 -1 -14 -12 -14 -9 0 -27 -16
-40 -35 -23 -36 -50 -49 -36 -17 11 25 11 75 -1 79 -6 2 -21 -15 -35 -37 -14
-22 -27 -40 -31 -40 -18 0 -16 17 6 46 14 18 25 37 25 42 0 6 4 12 8 14 4 2
21 20 36 41 16 20 35 37 43 37 10 0 5 -13 -17 -40z m-350 -11 c0 -5 -7 -9 -15
-9 -15 0 -20 12 -9 23 8 8 24 -1 24 -14z m30 -44 c0 -8 -4 -15 -9 -15 -13 0
-22 16 -14 24 11 11 23 6 23 -9z m-1220 -50 c0 -8 -4 -15 -9 -15 -13 0 -22 16
-14 24 11 11 23 6 23 -9z m1260 0 c0 -8 -4 -15 -9 -15 -13 0 -22 16 -14 24 11
11 23 6 23 -9z m420 -10 c0 -14 -22 -25 -52 -25 -11 0 -18 -5 -15 -12 3 -9 24
-12 69 -10 77 4 90 -7 54 -43 -15 -14 -26 -28 -26 -32 0 -3 19 -2 43 1 50 8
77 0 77 -20 0 -12 5 -12 30 1 36 19 50 19 50 1 0 -14 -31 -29 -88 -43 -42 -10
-42 -26 0 -34 l33 -6 -32 -2 c-40 -1 -63 7 -63 25 0 7 -7 17 -17 22 -10 6 -14
16 -10 26 5 12 0 16 -18 16 -15 0 -25 6 -25 14 0 7 -10 16 -21 19 -14 4 -20
11 -16 21 4 11 -2 16 -26 18 -27 2 -33 8 -35 31 -3 23 2 30 29 41 36 15 59 11
59 -9z m-805 6 c7 -12 -12 -24 -25 -16 -11 7 -4 25 10 25 5 0 11 -4 15 -9z
m-1385 -27 c0 -17 -22 -14 -28 4 -2 7 3 12 12 12 9 0 16 -7 16 -16z m1810 -9
c0 -8 -4 -15 -9 -15 -13 0 -22 16 -14 24 11 11 23 6 23 -9z m-1300 -20 c0 -8
-4 -15 -9 -15 -13 0 -22 16 -14 24 11 11 23 6 23 -9z m895 -15 c-5 -8 -11 -8
-17 -2 -6 6 -7 16 -3 22 5 8 11 8 17 2 6 -6 7 -16 3 -22z m-1365 5 c0 -8 -7
-15 -15 -15 -8 0 -15 7 -15 15 0 8 7 15 15 15 8 0 15 -7 15 -15z m1108 -13 c2
-7 -3 -12 -12 -12 -9 0 -16 7 -16 16 0 17 22 14 28 -4z m562 11 c0 -5 -9 -21
-21 -38 -11 -16 -29 -48 -41 -70 l-20 -40 31 29 c17 17 31 36 31 43 0 7 3 12
8 11 4 -1 20 6 35 16 21 15 31 16 40 7 17 -17 -4 -45 -35 -49 -14 -2 -44 -23
-69 -48 -50 -51 -75 -58 -65 -18 4 14 19 43 33 65 14 22 24 42 21 44 -6 6 -70
-62 -86 -91 -9 -15 -13 -17 -23 -6 -11 10 1 26 61 82 68 63 100 83 100 63z
m140 -19 c0 -17 -22 -14 -28 4 -2 7 3 12 12 12 9 0 16 -7 16 -16z m-1782 -32
c2 -7 -3 -12 -12 -12 -9 0 -16 7 -16 16 0 17 22 14 28 -4z m447 9 c7 -12 -12
-24 -25 -16 -11 7 -4 25 10 25 5 0 11 -4 15 -9z m923 -3 c-6 -18 -28 -21 -28
-4 0 9 7 16 16 16 9 0 14 -5 12 -12z m-694 -14 c25 -25 19 -69 -14 -108 -30
-33 -30 -36 -19 -80 8 -31 17 -46 27 -46 15 0 15 -2 0 -17 -14 -13 -20 -14
-32 -3 -9 7 -16 24 -16 39 0 40 -11 72 -23 68 -6 -2 -16 -23 -22 -48 -7 -30
-17 -45 -29 -47 -15 -3 -17 0 -11 14 4 11 9 37 10 60 2 22 7 49 12 60 6 10 13
34 17 53 5 28 4 32 -8 22 -21 -17 -29 4 -8 21 35 31 92 37 116 12z m156 2 c0
-8 -9 -44 -21 -81 -23 -74 -19 -115 7 -80 8 11 13 31 12 45 -3 22 0 25 28 22
20 -2 36 4 49 18 22 24 35 26 35 3 0 -9 5 -31 12 -49 9 -26 9 -36 -1 -48 -23
-28 -73 -14 -56 14 5 8 11 7 21 -1 22 -18 27 -4 11 28 -13 24 -16 25 -22 11
-4 -10 -11 -18 -16 -18 -4 0 -6 7 -2 16 5 14 3 15 -15 5 -12 -7 -22 -17 -22
-23 0 -35 -65 -64 -76 -34 -4 12 -9 11 -25 -5 -29 -29 -44 -19 -47 33 -2 32 2
49 13 58 15 12 15 8 9 -41 l-7 -54 25 22 c16 15 28 43 37 85 13 62 25 88 42
88 5 0 9 -6 9 -14z m990 -1 c0 -8 -4 -15 -9 -15 -13 0 -22 16 -14 24 11 11 23
6 23 -9z m-740 -10 c0 -8 -4 -15 -9 -15 -13 0 -22 16 -14 24 11 11 23 6 23 -9z
m-339 -18 c-13 -13 -26 -3 -16 12 3 6 11 8 17 5 6 -4 6 -10 -1 -17z m654 -6
c7 -12 -12 -24 -25 -16 -11 7 -4 25 10 25 5 0 11 -4 15 -9z m460 -21 c-5 -8
-11 -8 -17 -2 -6 6 -7 16 -3 22 5 8 11 8 17 2 6 -6 7 -16 3 -22z m-1835 4 c0
-9 -5 -14 -12 -12 -18 6 -21 28 -4 28 9 0 16 -7 16 -16z m425 7 c7 -12 -12
-24 -25 -16 -11 7 -4 25 10 25 5 0 11 -4 15 -9z m630 -20 c7 -12 -12 -24 -25
-16 -11 7 -4 25 10 25 5 0 11 -4 15 -9z m340 -41 c-5 -8 -11 -8 -17 -2 -6 6
-7 16 -3 22 5 8 11 8 17 2 6 -6 7 -16 3 -22z m490 21 c7 -12 -12 -24 -25 -16
-11 7 -4 25 10 25 5 0 11 -4 15 -9z m-197 -18 c-3 -14 -13 -18 -41 -17 -25 1
-37 -3 -37 -12 0 -17 42 -28 76 -20 32 8 64 -1 64 -19 0 -16 -19 -30 -28 -20
-3 3 0 10 8 15 12 8 9 10 -11 10 -15 0 -33 -7 -40 -16 -11 -14 -10 -18 6 -30
26 -19 55 -18 111 6 31 14 51 17 57 11 11 -11 -29 -31 -61 -31 -16 -1 -16 -2
1 -14 25 -19 21 -33 -13 -39 -33 -7 -41 -27 -11 -27 11 0 23 -5 27 -12 5 -8
-2 -9 -27 -4 -44 8 -59 24 -39 39 28 22 22 37 -13 32 -17 -3 -26 -2 -19 1 10
4 4 12 -18 25 -20 12 -30 26 -28 37 2 12 -6 20 -27 27 -57 19 -34 75 31 75 28
0 35 -3 32 -17z m-1686 -8 c0 -5 -5 -11 -11 -13 -6 -2 -11 4 -11 13 0 9 5 15
11 13 6 -2 11 -8 11 -13z m426 3 c-6 -18 -28 -21 -28 -4 0 9 7 16 16 16 9 0
14 -5 12 -12z m612 -24 c0 -9 -5 -14 -12 -12 -18 6 -21 28 -4 28 9 0 16 -7 16
-16z m882 1 c0 -5 -5 -11 -11 -13 -6 -2 -11 4 -11 13 0 9 5 15 11 13 6 -2 11
-8 11 -13z m-482 -16 c0 -5 -7 -9 -15 -9 -15 0 -20 12 -9 23 8 8 24 -1 24 -14z
m-1781 -26 c6 -21 11 -51 11 -67 0 -21 16 -45 61 -93 71 -77 76 -106 18 -111
-57 -5 -87 26 -95 99 -4 33 -11 62 -17 66 -5 3 -7 1 -3 -5 3 -6 2 -23 -4 -37
-9 -25 -14 -27 -45 -22 l-35 6 15 -29 c20 -38 19 -94 -1 -114 -24 -24 -60 -19
-98 14 -41 37 -56 85 -32 108 15 15 18 15 39 -6 12 -12 27 -37 33 -55 13 -38
47 -45 52 -10 3 19 -23 97 -49 145 -16 30 -11 76 10 87 10 6 22 7 26 3 4 -4 5
2 3 12 -6 35 19 27 61 -20 37 -42 41 -44 41 -23 0 13 -4 39 -9 57 -6 18 -6 32
-1 32 5 0 14 -17 19 -37z m349 6 c-2 -6 -8 -10 -13 -10 -5 0 -11 4 -13 10 -2
6 4 11 13 11 9 0 15 -5 13 -11z m430 0 c-2 -6 -8 -10 -13 -10 -5 0 -11 4 -13
10 -2 6 4 11 13 11 9 0 15 -5 13 -11z m1532 -4 c0 -8 -7 -15 -15 -15 -8 0 -15
7 -15 15 0 8 7 15 15 15 8 0 15 -7 15 -15z m-942 -17 c-6 -18 -28 -21 -28 -4
0 9 7 16 16 16 9 0 14 -5 12 -12z m442 -9 c0 -5 -7 -9 -15 -9 -15 0 -20 12 -9
23 8 8 24 -1 24 -14z m545 -19 c-5 -8 -11 -8 -17 -2 -6 6 -7 16 -3 22 5 8 11
8 17 2 6 -6 7 -16 3 -22z m-1570 -20 c-5 -8 -11 -8 -17 -2 -6 6 -7 16 -3 22 5
8 11 8 17 2 6 -6 7 -16 3 -22z m-437 8 c-6 -18 -28 -21 -28 -4 0 9 7 16 16 16
9 0 14 -5 12 -12z m1002 -19 c0 -5 -7 -9 -15 -9 -15 0 -20 12 -9 23 8 8 24 -1
24 -14z m311 11 c11 -6 19 -21 19 -35 0 -29 -48 -71 -64 -55 -7 7 -2 18 19 35
24 18 27 26 18 36 -30 31 -183 -63 -183 -112 0 -24 30 -40 60 -32 16 4 21 3
16 -5 -11 -17 -72 -15 -90 4 -20 19 -20 37 -1 74 37 71 149 120 206 90z m184
1 c7 -12 -12 -24 -25 -16 -11 7 -4 25 10 25 5 0 11 -4 15 -9z m565 -6 c0 -8
-7 -15 -15 -15 -8 0 -15 7 -15 15 0 8 7 15 15 15 8 0 15 -7 15 -15z m-2081
-52 c-8 -9 -16 -10 -22 -4 -13 13 0 31 19 24 11 -4 12 -8 3 -20z m471 6 c0 -5
-7 -9 -15 -9 -15 0 -20 12 -9 23 8 8 24 -1 24 -14z m1078 -7 c2 -7 -3 -12 -12
-12 -9 0 -16 7 -16 16 0 17 22 14 28 -4z m-548 -7 c0 -8 -7 -15 -15 -15 -8 0
-15 7 -15 15 0 8 7 15 15 15 8 0 15 -7 15 -15z m-1010 -40 c0 -8 -7 -15 -15
-15 -16 0 -20 12 -8 23 11 12 23 8 23 -8z m490 -6 c0 -5 -7 -9 -15 -9 -15 0
-20 12 -9 23 8 8 24 -1 24 -14z m935 11 c3 -5 -15 -20 -41 -33 -46 -23 -47
-24 -21 -31 37 -9 34 -33 -8 -53 -49 -24 -33 -36 37 -28 44 5 59 4 54 -4 -4
-6 -13 -11 -19 -11 -24 0 -59 -32 -48 -43 7 -7 23 -5 51 8 22 10 43 15 47 12
9 -10 -16 -35 -39 -39 -12 -2 -23 -9 -26 -15 -3 -10 14 -13 61 -13 44 0 68 -5
77 -15 15 -18 5 -35 -21 -35 -24 0 -25 17 -1 23 9 3 3 5 -15 6 -18 0 -39 -6
-48 -16 -16 -16 -16 -18 5 -35 28 -23 106 -24 157 -3 26 11 40 12 47 5 13 -13
-9 -30 -39 -30 -11 0 -26 -4 -33 -9 -11 -7 -11 -9 2 -14 16 -6 23 -36 9 -38
-5 0 -20 -2 -35 -3 -51 -3 -54 -22 -6 -40 l43 -16 -38 4 c-22 3 -45 10 -53 17
-18 15 -18 39 1 39 8 0 15 9 15 20 0 16 -5 19 -30 14 -19 -4 -30 -2 -30 5 0 6
8 11 18 12 9 0 2 5 -15 10 -34 10 -58 41 -49 64 3 8 -5 16 -20 19 -13 4 -24
12 -24 19 0 7 -9 18 -21 25 -15 10 -20 21 -16 38 4 21 0 24 -24 24 -54 0 -47
27 17 67 18 11 18 11 0 19 -13 5 -32 0 -58 -15 -70 -40 -41 2 35 51 75 48 92
55 102 38z m165 -5 c0 -8 -7 -15 -15 -15 -16 0 -20 12 -8 23 11 12 23 8 23 -8z
m-602 -16 c-2 -6 -8 -10 -13 -10 -5 0 -11 4 -13 10 -2 6 4 11 13 11 9 0 15 -5
13 -11z m640 -31 c-6 -18 -28 -21 -28 -4 0 9 7 16 16 16 9 0 14 -5 12 -12z
m-1638 -13 c0 -8 -7 -15 -15 -15 -8 0 -15 7 -15 15 0 8 7 15 15 15 8 0 15 -7
15 -15z m510 0 c0 -8 -7 -15 -15 -15 -16 0 -20 12 -8 23 11 12 23 8 23 -8z
m470 -10 c0 -8 -7 -15 -15 -15 -16 0 -20 12 -8 23 11 12 23 8 23 -8z m700 -26
c0 -5 -7 -9 -15 -9 -15 0 -20 12 -9 23 8 8 24 -1 24 -14z m-1700 -24 c0 -8 -4
-15 -9 -15 -13 0 -22 16 -14 24 11 11 23 6 23 -9z m540 0 c0 -8 -7 -15 -15
-15 -8 0 -15 7 -15 15 0 8 7 15 15 15 8 0 15 -7 15 -15z m445 -4 c7 -12 -12
-24 -25 -16 -11 7 -4 25 10 25 5 0 11 -4 15 -9z m747 -16 c0 -5 -5 -11 -11
-13 -6 -2 -11 4 -11 13 0 9 5 15 11 13 6 -2 11 -8 11 -13z m-2310 -54 c24 -25
55 -45 90 -56 29 -10 65 -24 79 -31 24 -12 27 -11 39 11 8 15 10 37 5 61 -7
37 -7 37 17 22 31 -21 34 -51 8 -95 -15 -25 -18 -39 -11 -46 16 -16 13 -67 -4
-73 -24 -9 -45 15 -45 51 0 32 -3 34 -62 54 -34 11 -62 20 -63 18 -1 -1 -6
-17 -11 -36 -13 -50 -31 -50 -30 -1 1 40 0 41 -54 63 -64 26 -93 64 -70 92 21
26 69 11 112 -34z m550 24 c0 -5 -5 -11 -11 -13 -6 -2 -11 4 -11 13 0 9 5 15
11 13 6 -2 11 -8 11 -13z m578 -10 c0 -8 -7 -15 -15 -15 -8 0 -15 7 -15 15 0
8 7 15 15 15 8 0 15 -7 15 -15z m1228 -3 c2 -7 -3 -12 -12 -12 -9 0 -16 7 -16
16 0 17 22 14 28 -4z m-808 -8 c0 -9 -5 -14 -12 -12 -18 6 -21 28 -4 28 9 0
16 -7 16 -16z m120 -20 c0 -9 -5 -14 -12 -12 -18 6 -21 28 -4 28 9 0 16 -7 16
-16z m-1142 -15 c-2 -6 -8 -10 -13 -10 -5 0 -11 4 -13 10 -2 6 4 11 13 11 9 0
15 -5 13 -11z m1092 -4 c0 -8 -7 -15 -15 -15 -8 0 -15 7 -15 15 0 8 7 15 15
15 8 0 15 -7 15 -15z m108 4 c-2 -6 -8 -10 -13 -10 -5 0 -11 4 -13 10 -2 6 4
11 13 11 9 0 15 -5 13 -11z m664 -4 c0 -5 -5 -11 -11 -13 -6 -2 -11 4 -11 13
0 9 5 15 11 13 6 -2 11 -8 11 -13z m-1664 -23 c2 -14 -7 -33 -27 -53 -17 -17
-34 -43 -37 -57 -4 -15 -13 -39 -21 -55 -13 -26 -12 -28 9 -36 14 -5 31 -5 41
1 15 8 18 6 15 -9 -3 -14 -11 -17 -38 -15 -19 1 -52 3 -72 3 -20 0 -39 3 -42
7 -8 14 9 31 34 35 16 3 28 14 36 38 18 50 17 59 -11 59 -14 0 -25 5 -25 10 0
6 13 10 29 10 23 0 30 5 34 29 12 57 68 82 75 33z m412 13 c0 -8 -7 -15 -15
-15 -8 0 -15 7 -15 15 0 8 7 15 15 15 8 0 15 -7 15 -15z m415 -5 c3 -5 3 -15
0 -20 -7 -12 -45 5 -45 20 0 13 37 13 45 0z m230 1 c7 -12 -12 -24 -25 -16
-11 7 -4 25 10 25 5 0 11 -4 15 -9z m-895 -19 c0 -13 -12 -22 -22 -16 -10 6
-1 24 13 24 5 0 9 -4 9 -8z m1545 -1 c7 -12 -12 -24 -25 -16 -11 7 -4 25 10
25 5 0 11 -4 15 -9z m-1930 -10 c7 -12 -12 -24 -25 -16 -11 7 -4 25 10 25 5 0
11 -4 15 -9z m1323 -13 c-6 -18 -28 -21 -28 -4 0 9 7 16 16 16 9 0 14 -5 12
-12z m-680 -10 c-6 -18 -28 -21 -28 -4 0 9 7 16 16 16 9 0 14 -5 12 -12z m378
1 c3 -6 2 -15 -2 -19 -12 -12 -38 5 -30 19 9 14 23 14 32 0z m949 -18 c7 -12
-12 -24 -25 -16 -11 7 -4 25 10 25 5 0 11 -4 15 -9z m-1987 -19 c2 -7 -3 -12
-12 -12 -9 0 -16 7 -16 16 0 17 22 14 28 -4z m307 -10 c12 -28 19 -28 45 0 26
28 34 19 22 -25 -6 -20 -7 -38 -4 -41 9 -10 62 46 62 66 0 13 6 18 18 16 9 -1
23 1 30 5 24 16 35 -4 28 -51 l-6 -46 30 29 c36 34 40 19 5 -19 -42 -45 -71
-32 -55 24 5 19 7 36 4 39 -9 9 -44 -39 -44 -60 0 -23 -20 -35 -30 -18 -7 10
-11 10 -24 0 -22 -19 -49 4 -43 36 4 20 2 21 -12 11 -9 -7 -24 -23 -35 -36
-27 -34 -60 -26 -64 16 -6 66 50 107 73 54z m923 16 c17 -17 15 -45 -4 -52
-25 -10 -30 2 -8 18 18 14 18 15 2 21 -28 11 -48 -2 -48 -30 0 -50 -70 -86
-99 -51 -14 16 -4 46 15 46 10 0 13 -7 8 -25 -5 -19 -2 -25 9 -25 20 0 47 38
47 65 0 27 18 45 45 45 12 0 26 -5 33 -12z m152 -3 c0 -8 -7 -15 -15 -15 -8 0
-15 7 -15 15 0 8 7 15 15 15 8 0 15 -7 15 -15z m-712 -26 c-2 -6 -8 -10 -13
-10 -5 0 -11 4 -13 10 -2 6 4 11 13 11 9 0 15 -5 13 -11z m347 2 c7 -12 -12
-24 -25 -16 -11 7 -4 25 10 25 5 0 11 -4 15 -9z m1010 0 c7 -12 -12 -24 -25
-16 -11 7 -4 25 10 25 5 0 11 -4 15 -9z m-615 -26 c0 -8 -4 -15 -9 -15 -13 0
-22 16 -14 24 11 11 23 6 23 -9z m-1442 -6 c-2 -6 -8 -10 -13 -10 -5 0 -11 4
-13 10 -2 6 4 11 13 11 9 0 15 -5 13 -11z m1027 -39 c-5 -8 -11 -8 -17 -2 -6
6 -7 16 -3 22 5 8 11 8 17 2 6 -6 7 -16 3 -22z m278 10 c-16 -15 -125 -50
-121 -39 4 13 109 57 121 51 5 -2 5 -8 0 -12z m-605 -1 c-2 -6 -8 -10 -13 -10
-5 0 -11 4 -13 10 -2 6 4 11 13 11 9 0 15 -5 13 -11z m772 -20 c0 -5 -7 -9
-15 -9 -15 0 -20 12 -9 23 8 8 24 -1 24 -14z m-1500 -5 c0 -9 -5 -14 -12 -12
-18 6 -21 28 -4 28 9 0 16 -7 16 -16z m1302 -19 c0 -6 -9 -15 -21 -21 -27 -14
-16 -24 26 -24 36 0 53 -21 34 -44 -6 -7 -7 -16 -3 -20 10 -11 -51 5 -66 17
-7 5 -10 18 -7 28 4 13 1 19 -9 19 -23 0 -20 28 4 35 11 3 20 11 20 17 0 12
21 6 22 -7z m-252 -16 c0 -5 -7 -9 -15 -9 -15 0 -20 12 -9 23 8 8 24 -1 24
-14z m-330 -5 c0 -17 -22 -14 -28 4 -2 7 3 12 12 12 9 0 16 -7 16 -16z m-745
-3 c7 -12 -12 -24 -25 -16 -11 7 -4 25 10 25 5 0 11 -4 15 -9z m1553 -2 c-2
-6 -8 -10 -13 -10 -5 0 -11 4 -13 10 -2 6 4 11 13 11 9 0 15 -5 13 -11z m-488
-49 c0 -11 -7 -20 -15 -20 -15 0 -21 21 -8 33 12 13 23 7 23 -13z m-1095 -20
c-5 -8 -11 -8 -17 -2 -6 6 -7 16 -3 22 5 8 11 8 17 2 6 -6 7 -16 3 -22z m773
19 c-2 -6 -8 -10 -13 -10 -5 0 -11 4 -13 10 -2 6 4 11 13 11 9 0 15 -5 13 -11z
m827 0 c10 -15 -1 -23 -20 -15 -9 3 -13 10 -10 16 8 13 22 13 30 -1z m-560
-18 c7 -12 -12 -24 -25 -16 -11 7 -4 25 10 25 5 0 11 -4 15 -9z m-57 -29 c2
-7 -3 -12 -12 -12 -9 0 -16 7 -16 16 0 17 22 14 28 -4z m-216 -24 c-15 -15
-26 -4 -18 18 5 13 9 15 18 6 9 -9 9 -15 0 -24z m333 23 c7 -12 -12 -24 -25
-16 -11 7 -4 25 10 25 5 0 11 -4 15 -9z m323 -9 c2 -7 -7 -12 -22 -12 -14 0
-26 -4 -26 -10 0 -5 16 -10 36 -10 21 0 33 -4 29 -10 -3 -5 -18 -10 -33 -10
-26 -1 -26 -1 -8 -15 11 -9 41 -15 68 -15 37 0 48 -4 48 -16 0 -11 -5 -14 -16
-10 -9 3 -40 6 -70 6 -42 0 -52 3 -48 14 3 8 0 17 -5 21 -6 3 -9 10 -6 15 3 5
1 11 -5 15 -18 11 -11 35 13 45 26 10 39 8 45 -8z m-1438 -7 c0 -8 -7 -15 -15
-15 -16 0 -20 12 -8 23 11 12 23 8 23 -8z m940 0 c0 -8 -7 -15 -15 -15 -16 0
-20 12 -8 23 11 12 23 8 23 -8z m690 0 c0 -8 -7 -15 -15 -15 -8 0 -15 7 -15
15 0 8 7 15 15 15 8 0 15 -7 15 -15z m-742 -23 c2 -7 -3 -12 -12 -12 -9 0 -16
7 -16 16 0 17 22 14 28 -4z m-63 -32 c-5 -8 -11 -8 -17 -2 -6 6 -7 16 -3 22 5
8 11 8 17 2 6 -6 7 -16 3 -22z m-757 8 c-6 -18 -28 -21 -28 -4 0 9 7 16 16 16
9 0 14 -5 12 -12z m712 -13 c0 -17 -17 -28 -30 -20 -7 4 -7 13 0 26 12 21 30
17 30 -6z m332 10 c0 -5 -5 -11 -11 -13 -6 -2 -11 4 -11 13 0 9 5 15 11 13 6
-2 11 -8 11 -13z m-1132 -10 c0 -8 -7 -15 -15 -15 -8 0 -15 7 -15 15 0 8 7 15
15 15 8 0 15 -7 15 -15z m145 6 c7 -12 -12 -24 -25 -16 -11 7 -4 25 10 25 5 0
11 -4 15 -9z m1520 0 c7 -12 -12 -24 -25 -16 -11 7 -4 25 10 25 5 0 11 -4 15
-9z m-1460 -10 c7 -12 -12 -24 -25 -16 -11 7 -4 25 10 25 5 0 11 -4 15 -9z
m55 -16 c0 -8 -7 -15 -15 -15 -16 0 -20 12 -8 23 11 12 23 8 23 -8z m418 -3
c2 -7 -3 -12 -12 -12 -9 0 -16 7 -16 16 0 17 22 14 28 -4z m60 6 c-6 -18 -28
-21 -28 -4 0 9 7 16 16 16 9 0 14 -5 12 -12z m-418 -19 c0 -5 -7 -9 -15 -9
-15 0 -20 12 -9 23 8 8 24 -1 24 -14z m236 10 c10 -17 -13 -36 -27 -22 -12 12
-4 33 11 33 5 0 12 -5 16 -11z m62 -1 c-6 -18 -28 -21 -28 -4 0 9 7 16 16 16
9 0 14 -5 12 -12z m-243 -28 c-5 -8 -11 -8 -17 -2 -6 6 -7 16 -3 22 5 8 11 8
17 2 6 -6 7 -16 3 -22z m123 12 c2 -7 -3 -12 -12 -12 -9 0 -16 7 -16 16 0 17
22 14 28 -4z m-60 -3 c-2 -6 -8 -10 -13 -10 -5 0 -11 4 -13 10 -2 6 4 11 13
11 9 0 15 -5 13 -11z m712 -4 c0 -8 -7 -15 -15 -15 -8 0 -15 7 -15 15 0 8 7
15 15 15 8 0 15 -7 15 -15z m-1165 -4 c7 -12 -12 -24 -25 -16 -11 7 -4 25 10
25 5 0 11 -4 15 -9z m1035 -1 c0 -5 7 -7 15 -4 8 4 15 1 15 -5 0 -6 -6 -11
-14 -11 -15 0 -28 -69 -16 -84 5 -4 15 5 24 20 9 17 15 22 16 13 0 -25 -25
-53 -44 -46 -10 4 -16 18 -16 41 0 28 -4 35 -22 39 l-23 4 23 8 c12 4 22 14
22 21 0 8 5 14 10 14 6 0 10 -4 10 -10z m640 -5 c0 -8 -7 -15 -15 -15 -8 0
-15 7 -15 15 0 8 7 15 15 15 8 0 15 -7 15 -15z m-172 -11 c13 -9 21 -22 18
-29 -3 -9 7 -15 30 -19 19 -4 34 -12 34 -18 0 -10 -23 -9 -105 7 l-30 6 38
-31 c38 -33 48 -60 22 -60 -8 0 -19 9 -26 21 -7 14 -14 18 -21 11 -12 -12 28
-72 48 -72 25 0 25 -20 -1 -32 -19 -9 -28 -9 -37 0 -22 22 -31 12 -13 -14 9
-14 14 -28 12 -31 -10 -9 -39 47 -33 63 6 15 8 15 31 0 31 -21 33 -7 2 22 -25
24 -34 72 -15 83 9 6 9 11 0 22 -7 8 -10 21 -6 30 3 8 0 18 -6 22 -8 5 -8 11
1 21 15 18 29 18 57 -2z m-948 -25 c0 -5 -7 -9 -15 -9 -15 0 -20 12 -9 23 8 8
24 -1 24 -14z m149 2 c9 -6 12 -18 7 -37 -12 -50 -11 -57 2 -61 7 -3 15 7 18
26 8 36 8 36 33 14 16 -13 18 -21 10 -36 -21 -37 0 -28 25 12 15 23 30 41 34
41 19 0 21 -15 6 -38 -16 -24 -13 -39 5 -28 6 4 18 23 27 42 20 42 46 42 55
-1 l6 -30 10 25 c6 14 14 33 17 43 3 9 11 17 17 17 7 0 9 -3 6 -7 -4 -3 0 -17
8 -29 20 -31 9 -57 -21 -50 -12 3 -25 2 -29 -3 -3 -5 -13 -10 -23 -10 -23 0
-64 -7 -83 -16 -10 -3 -20 -1 -24 5 -5 8 -11 8 -21 -1 -7 -6 -21 -9 -29 -5
-13 4 -14 10 -5 26 7 13 7 20 1 20 -6 0 -17 -12 -25 -27 -8 -16 -15 -25 -16
-21 0 4 -11 -4 -25 -17 -22 -23 -64 -33 -77 -19 -3 3 2 36 12 75 10 38 14 66
9 63 -13 -8 -11 10 3 24 14 14 47 15 67 3z m476 -10 c7 -12 -12 -24 -25 -16
-11 7 -4 25 10 25 5 0 11 -4 15 -9z m-1197 -12 c-2 -6 -8 -10 -13 -10 -5 0
-11 4 -13 10 -2 6 4 11 13 11 9 0 15 -5 13 -11z m1682 -4 c0 -8 -4 -15 -9 -15
-13 0 -22 16 -14 24 11 11 23 6 23 -9z m-1120 -36 c0 -5 -7 -9 -15 -9 -15 0
-20 12 -9 23 8 8 24 -1 24 -14z m645 -19 c-5 -8 -11 -8 -17 -2 -6 6 -7 16 -3
22 5 8 11 8 17 2 6 -6 7 -16 3 -22z m-1220 2 c0 -18 -20 -15 -23 4 -3 10 1 15
10 12 7 -3 13 -10 13 -16z m345 -26 c0 -16 3 -17 12 -8 18 18 25 15 32 -19 6
-33 26 -31 27 4 0 12 3 16 6 9 8 -21 -6 -62 -22 -62 -8 0 -15 5 -15 10 0 20
-19 9 -23 -12 -2 -16 -5 -19 -9 -8 -27 79 -36 115 -31 123 7 12 23 -13 23 -37z
m-198 -11 c-2 -11 -4 -29 -5 -40 -1 -10 -10 -27 -19 -37 -10 -10 -18 -29 -18
-42 0 -14 -4 -27 -9 -31 -18 -11 -22 14 -7 50 15 35 15 35 -12 36 -27 1 -27 1
4 10 32 9 62 53 44 64 -18 11 -52 -6 -46 -22 4 -10 1 -13 -11 -11 -26 5 -27
27 -1 38 12 5 37 8 53 7 24 -2 29 -6 27 -22z m37 -27 c-17 -81 -19 -88 -27
-88 -4 0 -3 29 2 65 6 38 15 65 22 65 9 0 9 -11 3 -42z m389 24 c2 -7 -3 -12
-12 -12 -9 0 -16 7 -16 16 0 17 22 14 28 -4z m670 -10 c2 -7 -3 -12 -12 -12
-9 0 -16 7 -16 16 0 17 22 14 28 -4z m-1253 -22 c-5 -8 -11 -8 -17 -2 -6 6 -7
16 -3 22 5 8 11 8 17 2 6 -6 7 -16 3 -22z m335 -16 c0 -13 5 -24 10 -24 6 0
10 -4 10 -10 0 -5 -7 -10 -15 -10 -9 0 -15 9 -15 25 0 35 -19 31 -26 -5 -4
-16 -10 -27 -15 -25 -4 3 -10 2 -13 -3 -2 -4 -19 -8 -38 -7 -29 0 -33 3 -30
24 6 53 52 72 52 21 0 -16 4 -30 9 -30 11 0 21 25 21 51 0 11 4 18 9 14 5 -3
12 -1 16 5 10 16 25 1 25 -26z m242 -9 c0 -5 -5 -11 -11 -13 -6 -2 -11 4 -11
13 0 9 5 15 11 13 6 -2 11 -8 11 -13z m688 -10 c0 -8 -7 -15 -15 -15 -8 0 -15
7 -15 15 0 8 7 15 15 15 8 0 15 -7 15 -15z m-1260 -16 c0 -5 -7 -9 -15 -9 -15
0 -20 12 -9 23 8 8 24 -1 24 -14z m590 -34 c0 -8 -4 -15 -9 -15 -13 0 -22 16
-14 24 11 11 23 6 23 -9z m700 -4 c0 -14 -18 -23 -30 -16 -6 4 -8 11 -5 16 8
12 35 12 35 0z m-1292 -19 c2 -7 -3 -12 -12 -12 -9 0 -16 7 -16 16 0 17 22 14
28 -4z m-3 -52 c3 -6 -1 -13 -10 -16 -19 -8 -30 0 -20 15 8 14 22 14 30 1z
m-37 -101 c-2 -6 -8 -10 -13 -10 -5 0 -11 4 -13 10 -2 6 4 11 13 11 9 0 15 -5
13 -11z m-58 -15 c0 -9 -5 -14 -12 -12 -18 6 -21 28 -4 28 9 0 16 -7 16 -16z"/>
<path d="M3580 2720 c0 -5 5 -10 10 -10 6 0 10 5 10 10 0 6 -4 10 -10 10 -5 0
-10 -4 -10 -10z"/>
<path d="M3680 2680 c-8 -5 -10 -10 -5 -10 6 0 17 5 25 10 8 5 11 10 5 10 -5
0 -17 -5 -25 -10z"/>
<path d="M3744 2616 c-10 -8 -16 -17 -12 -21 10 -10 45 4 52 20 7 19 -14 19
-40 1z"/>
<path d="M3811 2541 c-7 -5 -10 -14 -7 -20 11 -18 44 -13 56 9 9 17 8 20 -12
20 -13 0 -29 -4 -37 -9z"/>
<path d="M3275 2550 c-3 -6 1 -7 9 -4 18 7 21 14 7 14 -6 0 -13 -4 -16 -10z"/>
<path d="M2205 2510 c-9 -69 6 -87 41 -46 35 39 30 90 -7 94 -25 3 -27 0 -34
-48z"/>
<path d="M3278 2463 c7 -3 16 -2 19 1 4 3 -2 6 -13 5 -11 0 -14 -3 -6 -6z"/>
<path d="M3395 2310 c3 -5 11 -10 16 -10 6 0 7 5 4 10 -3 6 -11 10 -16 10 -6
0 -7 -4 -4 -10z"/>
<path d="M1150 2342 c0 -38 58 -101 80 -87 15 9 12 61 -3 74 -20 16 -77 26
-77 13z"/>
<path d="M1310 2222 c0 -34 11 -52 41 -68 40 -20 38 0 -6 50 -30 33 -35 36
-35 18z"/>
<path d="M1079 2162 c11 -20 41 -48 41 -39 0 18 -25 57 -37 57 -10 0 -11 -5
-4 -18z"/>
<path d="M3173 1843 c9 -9 20 -13 24 -9 4 4 1 11 -7 16 -25 16 -35 11 -17 -7z"/>
<path d="M920 2040 c0 -11 22 -26 48 -33 23 -5 23 -5 7 13 -17 19 -55 33 -55
20z"/>
<path d="M1683 1955 c-9 -25 4 -29 17 -6 7 15 7 21 0 21 -6 0 -13 -7 -17 -15z"/>
<path d="M1755 1880 c-7 -12 2 -30 16 -30 5 0 9 9 9 20 0 21 -15 27 -25 10z"/>
<path d="M1740 1825 c0 -8 7 -15 15 -15 8 0 15 4 15 9 0 5 -7 11 -15 15 -9 3
-15 0 -15 -9z"/>
<path d="M2710 1690 c0 -5 5 -10 10 -10 6 0 10 5 10 10 0 6 -4 10 -10 10 -5 0
-10 -4 -10 -10z"/>
<path d="M2740 1690 c0 -5 4 -10 9 -10 6 0 13 5 16 10 3 6 -1 10 -9 10 -9 0
-16 -4 -16 -10z"/>
<path d="M2782 1478 c3 -7 15 -15 27 -16 16 -3 22 1 19 10 -3 7 -15 15 -27 16
-16 3 -22 -1 -19 -10z"/>
<path d="M1982 1438 c-5 -18 -5 -35 0 -36 16 -7 39 21 36 41 -5 34 -26 31 -36
-5z"/>
<path d="M2146 1403 c-6 -14 -5 -15 5 -6 7 7 10 15 7 18 -3 3 -9 -2 -12 -12z"/>
<path d="M2218 1414 c-5 -4 -8 -16 -8 -28 0 -14 3 -17 11 -9 6 6 9 19 7 28 -1
9 -6 13 -10 9z"/>
<path d="M2286 1404 c-3 -8 -2 -13 3 -9 5 3 12 -1 14 -7 4 -8 6 -7 6 4 1 23
-15 32 -23 12z"/>
<path d="M1966 1364 c-9 -24 -7 -54 3 -54 16 0 41 31 41 51 0 23 -35 26 -44 3z"/>
<path d="M1505 1289 c-4 -11 -4 -23 -2 -26 9 -8 27 7 27 22 0 23 -18 27 -25 4z"/>
<path d="M3817 2928 l-28 -10 54 -34 c49 -31 177 -79 177 -67 0 3 -10 23 -22
45 -37 65 -110 92 -181 66z"/>
<path d="M818 2323 c-58 -59 -85 -95 -108 -147 -45 -101 -57 -206 -33 -289 5
-18 5 -18 18 0 12 17 14 16 20 -10 4 -16 5 -49 1 -74 l-6 -46 21 19 21 19 -7
-56 c-5 -41 -3 -65 9 -93 9 -21 16 -54 16 -73 0 -31 2 -34 16 -22 40 33 49 70
49 214 0 77 -2 203 -5 280 -5 129 -3 146 19 210 13 39 32 87 43 108 10 20 15
37 10 37 -4 0 -42 -35 -84 -77z"/>
<path d="M2375 1320 c-4 -6 17 -63 45 -128 29 -64 58 -133 65 -152 18 -44 19
-185 3 -313 l-12 -97 50 -46 c54 -50 100 -74 139 -74 22 0 25 4 20 20 -5 14
-2 20 9 20 23 0 21 10 -33 134 -27 63 -55 133 -61 156 -16 59 -14 138 4 201 9
29 16 56 16 60 0 5 -26 26 -58 48 -62 42 -113 94 -145 148 -20 34 -31 40 -42
23z"/>
<path d="M1560 1189 c0 -6 -12 -25 -26 -42 -33 -39 -31 -48 51 -245 65 -154
66 -158 54 -201 l-13 -45 40 -34 c48 -42 92 -62 138 -62 29 0 33 3 29 20 -6
24 -4 24 33 5 15 -8 30 -12 32 -10 12 11 -48 98 -115 168 -80 84 -127 168
-139 245 -9 60 7 85 89 143 l68 47 -88 6 c-49 4 -103 9 -120 12 -21 3 -33 1
-33 -7z"/>
</g>
</svg>
