<?xml version="1.0" standalone="no"?>
<!DOCTYPE svg PUBLIC "-//W3C//DTD SVG 20010904//EN"
 "http://www.w3.org/TR/2001/REC-SVG-20010904/DTD/svg10.dtd">
<svg version="1.0" xmlns="http://www.w3.org/2000/svg"
 width="480.000000pt" height="360.000000pt" viewBox="0 0 480.000000 360.000000"
 preserveAspectRatio="xMidYMid meet">

<g transform="translate(0.000000,360.000000) scale(0.100000,-0.100000)"
fill="#000000" stroke="none">
<path d="M2025 2843 c-121 -11 -345 -65 -345 -83 0 -5 9 -24 20 -42 11 -18 20
-40 20 -49 0 -9 7 -22 15 -29 13 -11 15 -5 15 48 0 40 5 64 15 72 24 20 37 2
30 -41 -4 -24 -3 -39 4 -39 13 0 22 16 32 54 l7 31 1 -30 c1 -40 -25 -78 -50
-72 -13 4 -19 0 -19 -13 0 -20 -23 -43 -33 -33 -4 3 -7 -1 -7 -9 0 -9 -7 -22
-16 -29 -14 -11 -19 -10 -35 10 -23 28 -25 79 -4 87 14 6 10 16 -31 72 -7 10
-294 -157 -326 -190 -21 -21 -47 -38 -58 -38 -66 0 -182 -126 -156 -169 3 -5
-16 -14 -44 -20 -78 -17 -126 -46 -168 -104 -22 -28 -49 -61 -61 -71 -43 -39
-68 -191 -37 -225 14 -15 8 -16 -58 -13 -58 3 -83 0 -123 -18 -71 -30 -99 -63
-114 -135 -15 -77 -2 -208 22 -213 8 -1 20 8 26 20 10 23 76 48 123 48 17 0
19 -3 10 -19 -5 -11 -10 -34 -10 -52 0 -65 -19 -94 -69 -108 -95 -27 -109 -55
-72 -136 32 -70 145 -134 210 -118 41 10 122 47 165 77 50 34 62 23 16 -15
-41 -33 -33 -44 37 -55 94 -14 211 46 348 177 40 38 99 69 132 69 10 0 31 7
47 15 35 18 49 19 43 3 -6 -17 23 -72 79 -153 l46 -66 -17 -42 c-10 -23 -19
-80 -22 -127 -5 -85 -15 -116 -79 -247 -22 -44 -16 -65 11 -43 12 10 15 9 15
-9 0 -17 6 -21 30 -21 43 0 72 17 100 58 19 28 25 33 28 19 2 -9 7 -17 12 -17
19 0 33 36 45 119 15 97 26 124 91 219 30 43 45 77 49 110 8 65 23 91 73 126
57 40 91 38 217 -9 55 -21 170 -56 255 -78 154 -40 156 -41 340 -41 154 0 204
3 299 22 125 25 298 80 373 118 26 13 52 24 59 24 6 0 73 -42 150 -92 161
-108 153 -92 147 -285 -4 -135 -5 -139 -70 -241 -27 -43 -13 -61 31 -39 29 15
30 14 28 -6 -2 -19 3 -22 28 -20 56 4 74 13 100 50 16 25 25 32 25 20 0 -14 3
-15 19 -5 37 23 43 55 35 183 -5 95 -3 139 11 208 l17 86 -36 65 c-29 52 -36
75 -36 118 0 62 19 149 60 273 54 165 73 262 73 380 1 123 -11 173 -71 290
-52 100 -163 208 -273 264 -46 24 -96 52 -110 62 -124 86 -420 123 -872 106
-123 -4 -301 -3 -422 3 -207 10 -260 10 -340 3z m-35 -38 c0 -8 -7 -15 -15
-15 -16 0 -20 12 -8 23 11 12 23 8 23 -8z m655 -6 c4 -5 -4 -27 -18 -47 -14
-20 -29 -49 -32 -64 -6 -24 -4 -28 15 -28 12 0 18 -4 15 -11 -4 -6 -14 -7 -24
-3 -9 4 -26 6 -38 6 -32 -2 -38 16 -10 27 33 13 42 40 20 57 -17 13 -17 13 0
14 10 0 20 8 24 18 14 38 35 52 48 31z m760 -19 c-5 -8 -11 -8 -17 -2 -6 6 -7
16 -3 22 5 8 11 8 17 2 6 -6 7 -16 3 -22z m-535 0 c0 -12 -7 -35 -16 -51 -19
-38 -11 -48 18 -23 l23 19 -23 -26 c-23 -26 -82 -37 -82 -15 0 6 -5 5 -12 -2
-22 -22 -41 -14 -34 13 8 30 -10 34 -19 5 -3 -11 -9 -20 -13 -21 -57 -9 -72
-6 -72 16 0 36 48 76 51 43 1 -7 1 -22 0 -33 -2 -19 0 -18 19 4 11 13 20 29
20 37 0 8 3 14 8 14 14 0 32 -39 26 -57 -3 -10 8 -2 24 17 17 19 33 32 36 29
4 -3 0 -12 -9 -19 -18 -15 -20 -43 -3 -38 6 2 18 28 26 56 15 52 32 69 32 32z
m-905 -29 c7 -12 -12 -24 -25 -16 -11 7 -4 25 10 25 5 0 11 -4 15 -9z m1420
-31 c-5 -8 -11 -8 -17 -2 -6 6 -7 16 -3 22 5 8 11 8 17 2 6 -6 7 -16 3 -22z
m-1433 -35 c0 -5 -5 -11 -11 -13 -6 -2 -11 4 -11 13 0 9 5 15 11 13 6 -2 11
-8 11 -13z m1423 -25 c-5 -8 -11 -8 -17 -2 -6 6 -7 16 -3 22 5 8 11 8 17 2 6
-6 7 -16 3 -22z m-1742 -60 c46 -57 65 -97 32 -70 -13 11 -14 10 -9 -4 6 -16
-19 -80 -36 -91 -5 -3 -19 -1 -30 5 -25 13 -25 6 0 -35 21 -35 18 -65 -7 -65
-10 0 -13 -5 -8 -17 11 -28 11 -48 0 -46 -6 1 -23 5 -39 9 -40 10 -31 -16 12
-35 30 -14 47 -39 20 -29 -7 3 -43 16 -80 29 -38 13 -68 29 -68 36 0 16 9 16
40 -2 33 -19 39 -18 33 4 -6 25 11 35 37 21 38 -20 42 -5 11 34 -17 21 -31 45
-31 52 0 16 34 36 44 27 4 -4 4 13 0 37 l-7 45 34 -29 c29 -24 35 -26 37 -12
2 9 -8 26 -22 37 -14 11 -26 25 -26 30 0 16 26 10 45 -11 50 -55 27 26 -25 92
-33 41 -36 48 -17 47 6 0 33 -26 60 -59z m1467 45 c0 -8 -7 -15 -15 -15 -8 0
-15 7 -15 15 0 8 7 15 15 15 8 0 15 -7 15 -15z m70 -1 c0 -17 -22 -14 -28 4
-2 7 3 12 12 12 9 0 16 -7 16 -16z m70 1 c0 -8 -7 -15 -15 -15 -8 0 -15 7 -15
15 0 8 7 15 15 15 8 0 15 -7 15 -15z m-200 -11 c0 -9 -5 -14 -12 -12 -18 6
-21 28 -4 28 9 0 16 -7 16 -16z m260 2 c0 -8 -4 -17 -9 -21 -12 -7 -24 12 -16
25 9 15 25 12 25 -4z m-1352 -14 c2 -7 -3 -12 -12 -12 -9 0 -16 7 -16 16 0 17
22 14 28 -4z m172 3 c0 -8 -7 -15 -15 -15 -8 0 -15 7 -15 15 0 8 7 15 15 15 8
0 15 -7 15 -15z m60 0 c0 -8 -7 -15 -15 -15 -16 0 -20 12 -8 23 11 12 23 8 23
-8z m66 4 c10 -17 -13 -36 -27 -22 -12 12 -4 33 11 33 5 0 12 -5 16 -11z m734
-4 c0 -8 -7 -15 -15 -15 -8 0 -15 7 -15 15 0 8 7 15 15 15 8 0 15 -7 15 -15z
m-672 -7 c-6 -18 -28 -21 -28 -4 0 9 7 16 16 16 9 0 14 -5 12 -12z m607 -18
c-5 -8 -11 -8 -17 -2 -6 6 -7 16 -3 22 5 8 11 8 17 2 6 -6 7 -16 3 -22z m455
10 c0 -5 -5 -12 -11 -16 -14 -8 -33 11 -25 25 7 11 36 4 36 -9z m-1310 -6 c0
-9 -5 -14 -12 -12 -18 6 -21 28 -4 28 9 0 16 -7 16 -16z m308 5 c-2 -6 -8 -10
-13 -10 -5 0 -11 4 -13 10 -2 6 4 11 13 11 9 0 15 -5 13 -11z m57 -19 c-5 -8
-11 -8 -17 -2 -6 6 -7 16 -3 22 5 8 11 8 17 2 6 -6 7 -16 3 -22z m-425 -6 c0
-16 -16 -19 -25 -4 -8 13 4 32 16 25 5 -4 9 -13 9 -21z m485 -4 c-5 -8 -11 -8
-17 -2 -6 6 -7 16 -3 22 5 8 11 8 17 2 6 -6 7 -16 3 -22z m310 0 c-5 -8 -11
-8 -17 -2 -6 6 -7 16 -3 22 5 8 11 8 17 2 6 -6 7 -16 3 -22z m63 19 c-2 -6 -8
-10 -13 -10 -5 0 -11 4 -13 10 -2 6 4 11 13 11 9 0 15 -5 13 -11z m-313 -29
c-5 -8 -11 -8 -17 -2 -6 6 -7 16 -3 22 5 8 11 8 17 2 6 -6 7 -16 3 -22z m193
12 c2 -7 -3 -12 -12 -12 -9 0 -16 7 -16 16 0 17 22 14 28 -4z m-128 -7 c0 -8
-4 -15 -9 -15 -13 0 -22 16 -14 24 11 11 23 6 23 -9z m65 6 c7 -12 -12 -24
-25 -16 -11 7 -4 25 10 25 5 0 11 -4 15 -9z m-737 -19 c2 -7 -3 -12 -12 -12
-9 0 -16 7 -16 16 0 17 22 14 28 -4z m1407 -22 c-5 -8 -11 -8 -17 -2 -6 6 -7
16 -3 22 5 8 11 8 17 2 6 -6 7 -16 3 -22z m411 15 c2 -5 -26 -32 -62 -58 l-65
-49 43 -27 43 -27 59 43 c56 42 86 50 92 28 2 -5 -26 -29 -62 -53 -52 -34 -63
-46 -54 -57 14 -17 -3 -29 -31 -20 -15 5 -34 -5 -75 -40 -35 -30 -60 -45 -70
-41 -13 5 -11 12 15 41 17 20 34 47 37 60 7 29 -2 75 -15 75 -5 0 -34 -23 -65
-51 -52 -47 -84 -59 -93 -34 -2 6 24 31 57 55 33 25 60 51 60 58 0 6 6 12 14
12 7 0 42 22 77 50 61 47 89 58 95 35z m-1821 -65 c-5 -8 -11 -8 -17 -2 -6 6
-7 16 -3 22 5 8 11 8 17 2 6 -6 7 -16 3 -22z m-627 -2 c-6 -18 -28 -21 -28 -4
0 9 7 16 16 16 9 0 14 -5 12 -12z m1390 -11 c7 -34 -8 -66 -47 -104 -23 -23
-42 -52 -46 -73 -4 -19 -15 -52 -25 -72 -13 -27 -15 -40 -6 -46 22 -17 46 -21
71 -12 19 7 25 6 25 -3 0 -37 -58 -49 -98 -21 -19 13 -27 13 -57 3 -31 -12
-37 -11 -53 5 -16 16 -16 18 8 37 14 12 34 19 46 16 19 -3 24 3 38 46 24 73
22 85 -16 89 -17 2 -33 9 -36 16 -3 9 3 11 21 7 36 -10 64 9 71 49 13 67 94
116 104 63z m642 7 c0 -17 -22 -14 -28 4 -2 7 3 12 12 12 9 0 16 -7 16 -16z
m-1400 -50 c0 -16 -16 -19 -25 -4 -8 13 4 32 16 25 5 -4 9 -13 9 -21z m990 11
c0 -16 -27 -32 -37 -22 -3 4 -3 13 0 22 8 20 37 20 37 0z m-1615 -14 c7 -12
-12 -24 -25 -16 -11 7 -4 25 10 25 5 0 11 -4 15 -9z m2017 -6 c0 -5 -5 -11
-11 -13 -6 -2 -11 4 -11 13 0 9 5 15 11 13 6 -2 11 -8 11 -13z m-1387 -44 c7
-12 -12 -24 -25 -16 -11 7 -4 25 10 25 5 0 11 -4 15 -9z m-617 -19 c2 -7 -3
-12 -12 -12 -9 0 -16 7 -16 16 0 17 22 14 28 -4z m2002 3 c0 -8 -7 -15 -15
-15 -16 0 -20 12 -8 23 11 12 23 8 23 -8z m-528 -41 c6 -13 15 -24 20 -24 11
0 48 38 48 50 0 6 9 10 19 10 18 0 18 -2 3 -60 -9 -32 -13 -63 -8 -67 11 -12
86 73 86 97 0 24 28 39 40 20 5 -8 9 -9 14 -1 10 16 56 13 62 -4 4 -9 1 -36
-5 -61 -7 -26 -9 -49 -5 -53 3 -3 24 14 45 38 24 27 39 37 39 28 0 -21 -72
-97 -92 -97 -29 0 -37 22 -25 73 5 26 7 50 4 54 -13 12 -47 -30 -58 -71 -10
-38 -23 -55 -42 -56 -4 0 -4 12 -1 27 l7 28 -32 -28 c-42 -35 -71 -24 -71 28
0 19 -4 35 -8 35 -10 0 -35 -24 -63 -62 -41 -56 -109 -17 -94 54 20 87 86 111
117 42z m-852 -9 c0 -8 -7 -15 -15 -15 -8 0 -15 7 -15 15 0 8 7 15 15 15 8 0
15 -7 15 -15z m-610 -10 c0 -8 -7 -15 -15 -15 -8 0 -15 7 -15 15 0 8 7 15 15
15 8 0 15 -7 15 -15z m1988 -3 c2 -7 -3 -12 -12 -12 -9 0 -16 7 -16 16 0 17
22 14 28 -4z m540 -56 c25 -25 -1 -61 -54 -76 -60 -17 -57 -38 6 -46 28 -4 50
-11 50 -16 0 -12 -85 -1 -112 13 -20 11 -23 30 -7 46 7 7 3 12 -15 17 -34 8
-49 38 -33 60 26 36 130 37 165 2z m-1913 15 c7 -12 -12 -24 -25 -16 -11 7 -4
25 10 25 5 0 11 -4 15 -9z m-605 -16 c0 -8 -7 -15 -15 -15 -16 0 -20 12 -8 23
11 12 23 8 23 -8z m1976 4 c10 -17 -13 -36 -27 -22 -12 12 -4 33 11 33 5 0 12
-5 16 -11z m-1316 -35 c0 -9 -5 -14 -12 -12 -18 6 -21 28 -4 28 9 0 16 -7 16
-16z m-540 -20 c0 -8 -6 -11 -15 -8 -8 4 -22 3 -30 0 -13 -4 -14 -10 -5 -26
15 -27 52 -25 80 5 27 29 74 33 108 9 36 -25 23 -74 -20 -74 -25 0 -23 17 3
25 31 10 19 39 -18 43 -21 2 -38 -3 -52 -17 -21 -21 -54 -41 -68 -41 -5 0 -19
9 -31 20 -26 24 -29 65 -6 78 22 12 54 4 54 -14z m490 -5 c0 -5 -7 -9 -15 -9
-15 0 -20 12 -9 23 8 8 24 -1 24 -14z m110 6 c0 -8 -7 -15 -15 -15 -8 0 -15 7
-15 15 0 8 7 15 15 15 8 0 15 -7 15 -15z m-705 -4 c7 -12 -12 -24 -25 -16 -11
7 -4 25 10 25 5 0 11 -4 15 -9z m1963 -13 c-6 -18 -28 -21 -28 -4 0 9 7 16 16
16 9 0 14 -5 12 -12z m-1207 -13 c-1 -15 -24 -12 -29 3 -3 9 2 13 12 10 10 -1
17 -7 17 -13z m-1025 -61 c8 -18 14 -46 14 -61 0 -32 15 -61 26 -50 4 4 10 24
14 44 l8 38 1 -37 c1 -47 -7 -68 -28 -68 -9 0 -22 -9 -29 -21 -7 -11 -19 -18
-27 -15 -9 3 -15 -3 -17 -17 -2 -12 -10 -22 -18 -22 -8 0 -18 -9 -21 -20 -3
-13 -13 -20 -27 -19 -17 0 -21 -4 -16 -18 6 -21 -20 -68 -38 -68 -39 0 -77 87
-46 106 14 9 38 -23 38 -53 0 -14 6 -23 15 -23 13 0 15 14 13 81 -3 96 7 107
52 58 l30 -33 0 56 c0 65 7 88 26 88 11 0 11 7 -1 41 -24 67 4 79 31 13z m869
26 c0 -7 -6 -15 -12 -17 -8 -3 -13 4 -13 17 0 13 5 20 13 18 6 -3 12 -11 12
-18z m213 8 c-6 -18 -28 -21 -28 -4 0 9 7 16 16 16 9 0 14 -5 12 -12z m-800
-16 c2 -7 -3 -12 -12 -12 -9 0 -16 7 -16 16 0 17 22 14 28 -4z m857 -1 c7 -12
-12 -24 -25 -16 -11 7 -4 25 10 25 5 0 11 -4 15 -9z m1095 -6 c0 -8 -7 -15
-15 -15 -8 0 -15 7 -15 15 0 8 7 15 15 15 8 0 15 -7 15 -15z m-1035 -14 c7
-12 -12 -24 -25 -16 -11 7 -4 25 10 25 5 0 11 -4 15 -9z m55 -27 c0 -9 -5 -14
-12 -12 -18 6 -21 28 -4 28 9 0 16 -7 16 -16z m1584 -4 c8 -8 7 -13 -3 -19
-11 -7 -9 -13 8 -30 25 -25 26 -34 6 -51 -14 -12 -13 -15 5 -32 44 -41 11 -72
-66 -61 -59 8 -57 -9 5 -51 49 -33 48 -45 -1 -21 -103 53 -105 119 -2 107 29
-3 44 -1 44 6 0 18 -46 43 -90 49 -26 4 -40 11 -40 20 0 12 12 14 57 11 37 -2
58 1 60 9 5 14 -47 43 -77 43 -27 0 -60 17 -60 32 0 14 138 4 154 -12z m-2544
-5 c0 -8 -7 -15 -15 -15 -16 0 -20 12 -8 23 11 12 23 8 23 -8z m580 6 c0 -14
-18 -23 -30 -16 -6 4 -8 11 -5 16 8 12 35 12 35 0z m440 -17 c0 -9 -5 -14 -12
-12 -18 6 -21 28 -4 28 9 0 16 -7 16 -16z m925 7 c7 -12 -12 -24 -25 -16 -11
7 -4 25 10 25 5 0 11 -4 15 -9z m-1625 -16 c0 -8 -7 -15 -15 -15 -8 0 -15 7
-15 15 0 8 7 15 15 15 8 0 15 -7 15 -15z m60 0 c0 -8 -7 -15 -15 -15 -8 0 -15
7 -15 15 0 8 7 15 15 15 8 0 15 -7 15 -15z m65 5 c3 -6 -1 -13 -10 -16 -19 -8
-30 0 -20 15 8 14 22 14 30 1z m630 -20 c-5 -8 -11 -8 -17 -2 -6 6 -7 16 -3
22 5 8 11 8 17 2 6 -6 7 -16 3 -22z m-830 1 c7 -12 -12 -24 -25 -16 -11 7 -4
25 10 25 5 0 11 -4 15 -9z m255 -5 c0 -8 -4 -17 -9 -21 -12 -7 -24 12 -16 25
9 15 25 12 25 -4z m635 -16 c-5 -8 -11 -8 -17 -2 -6 6 -7 16 -3 22 5 8 11 8
17 2 6 -6 7 -16 3 -22z m760 12 c0 -18 -20 -15 -23 4 -3 10 1 15 10 12 7 -3
13 -10 13 -16z m-1880 -12 c11 -17 -5 -32 -21 -19 -7 6 -11 15 -8 20 7 12 21
11 29 -1z m173 -8 c2 -7 -3 -12 -12 -12 -9 0 -16 7 -16 16 0 17 22 14 28 -4z
m383 3 c-1 -15 -24 -12 -29 3 -3 9 2 13 12 10 10 -1 17 -7 17 -13z m629 0 c0
-8 -7 -15 -15 -15 -8 0 -15 7 -15 15 0 8 7 15 15 15 8 0 15 -7 15 -15z m640
-15 c0 -5 -5 -12 -11 -16 -14 -8 -33 11 -25 25 7 11 36 4 36 -9z m110 5 c0 -8
-7 -15 -15 -15 -8 0 -15 7 -15 15 0 8 7 15 15 15 8 0 15 -7 15 -15z m-690 -10
c0 -8 -7 -15 -15 -15 -8 0 -15 7 -15 15 0 8 7 15 15 15 8 0 15 -7 15 -15z
m-1130 -11 c0 -9 -5 -14 -12 -12 -18 6 -21 28 -4 28 9 0 16 -7 16 -16z m1190
1 c0 -8 -7 -15 -15 -15 -8 0 -15 7 -15 15 0 8 7 15 15 15 8 0 15 -7 15 -15z
m60 -10 c0 -8 -7 -15 -15 -15 -8 0 -15 7 -15 15 0 8 7 15 15 15 8 0 15 -7 15
-15z m382 0 c0 -5 -5 -11 -11 -13 -6 -2 -11 4 -11 13 0 9 5 15 11 13 6 -2 11
-8 11 -13z m-722 -15 c40 -40 13 -122 -51 -153 l-34 -16 3 -65 c3 -50 7 -66
18 -66 9 0 12 -4 9 -10 -9 -14 -52 -12 -58 3 -3 6 -2 40 1 75 4 54 3 62 -12
62 -11 0 -24 -18 -38 -49 -21 -51 -43 -70 -61 -52 -7 7 -5 16 5 28 9 10 21 36
28 58 7 22 16 47 21 55 50 86 58 109 37 106 -23 -2 -21 19 3 31 38 20 106 16
129 -7z m400 4 c0 -9 -5 -14 -12 -12 -18 6 -21 28 -4 28 9 0 16 -7 16 -16z
m64 7 c3 -5 -1 -14 -8 -20 -16 -13 -32 2 -21 19 8 12 22 13 29 1z m201 0 c7
-12 -12 -24 -25 -16 -11 7 -4 25 10 25 5 0 11 -4 15 -9z m-1687 -40 c-7 -11
-18 -21 -25 -21 -17 0 -16 6 3 36 21 31 42 17 22 -15z m552 24 c0 -8 -7 -15
-15 -15 -16 0 -20 12 -8 23 11 12 23 8 23 -8z m1005 6 c7 -12 -12 -24 -25 -16
-11 7 -4 25 10 25 5 0 11 -4 15 -9z m60 0 c7 -12 -12 -24 -25 -16 -11 7 -4 25
10 25 5 0 11 -4 15 -9z m323 -19 c2 -7 -6 -12 -17 -12 -21 0 -27 11 -14 24 9
9 26 2 31 -12z m-1863 -1 c7 -12 -12 -24 -25 -16 -11 7 -4 25 10 25 5 0 11 -4
15 -9z m291 -13 c4 -6 2 -14 -4 -16 -17 -5 -15 -32 3 -32 8 0 19 15 24 33 9
30 9 31 10 5 1 -30 -25 -62 -45 -54 -9 3 -14 -2 -14 -14 0 -11 -7 -20 -15 -20
-8 0 -15 -9 -15 -20 0 -25 -25 -26 -39 -3 -5 10 -13 15 -17 11 -4 -4 1 -19 10
-32 19 -29 21 -40 5 -30 -7 4 -9 0 -5 -13 4 -12 1 -25 -9 -33 -8 -7 -15 -21
-15 -31 0 -25 -32 -25 -55 1 -22 24 -13 26 20 4 31 -20 31 -12 4 33 -22 35
-15 64 11 48 9 -6 9 -10 -1 -16 -19 -11 4 -34 26 -26 14 6 14 10 0 43 -11 26
-12 41 -5 55 13 23 18 24 42 2 18 -16 19 -15 12 25 -8 49 -1 53 20 15 l15 -28
1 46 c0 25 3 49 7 52 10 10 21 8 29 -5z m-91 -8 c3 -5 1 -10 -4 -10 -6 0 -11
5 -11 10 0 6 2 10 4 10 3 0 8 -4 11 -10z m945 -5 c0 -18 -46 -113 -65 -135
-19 -21 -29 -67 -16 -74 18 -11 53 33 49 62 -2 20 2 28 16 30 10 2 23 -3 28
-11 9 -17 45 -12 66 10 7 7 20 13 27 13 18 0 28 -17 15 -25 -6 -4 -8 -25 -4
-53 5 -39 3 -50 -14 -65 -24 -22 -50 -19 -66 6 -8 14 -8 20 4 27 11 7 17 4 24
-10 14 -30 26 -24 26 13 0 43 -9 51 -33 30 -19 -17 -19 -17 -13 5 12 36 -34
30 -56 -8 -30 -53 -98 -66 -98 -19 0 11 -3 19 -7 17 -5 -2 -20 -10 -35 -17
-55 -28 -71 24 -32 102 8 15 21 27 29 27 20 0 19 -13 -5 -52 -21 -35 -26 -68
-11 -68 14 0 71 50 71 62 0 15 49 110 67 131 20 21 33 22 33 2z m-110 -9 c0
-8 -4 -17 -9 -21 -12 -7 -24 12 -16 25 9 15 25 12 25 -4z m-1175 -5 c7 -12
-12 -24 -25 -16 -11 7 -4 25 10 25 5 0 11 -4 15 -9z m85 -17 c0 -16 -16 -19
-25 -4 -8 13 4 32 16 25 5 -4 9 -13 9 -21z m530 11 c0 -8 -7 -15 -15 -15 -16
0 -20 12 -8 23 11 12 23 8 23 -8z m1395 -13 c0 -18 -20 -15 -23 4 -3 10 1 15
10 12 7 -3 13 -10 13 -16z m-2070 -22 c-5 -8 -11 -8 -17 -2 -6 6 -7 16 -3 22
5 8 11 8 17 2 6 -6 7 -16 3 -22z m-45 -25 c0 -8 -7 -15 -15 -15 -16 0 -20 12
-8 23 11 12 23 8 23 -8z m715 -15 c-5 -8 -11 -8 -17 -2 -6 6 -7 16 -3 22 5 8
11 8 17 2 6 -6 7 -16 3 -22z m-1148 -13 c12 -11 32 -20 45 -21 13 -1 22 -7 20
-14 -1 -7 18 -25 43 -40 62 -37 61 -54 -3 -31 -22 7 -36 7 -51 -1 -30 -15 -27
-22 24 -50 25 -14 45 -30 45 -37 0 -19 -11 -16 -52 12 -20 14 -39 25 -42 25
-11 0 -116 83 -116 91 0 16 16 10 58 -20 l40 -30 11 31 c6 17 10 32 9 33 -41
26 -78 61 -78 72 0 16 14 10 47 -20z m631 22 c-2 -6 -8 -10 -13 -10 -5 0 -11
4 -13 10 -2 6 4 11 13 11 9 0 15 -5 13 -11z m1927 -19 c-5 -8 -11 -8 -17 -2
-6 6 -7 16 -3 22 5 8 11 8 17 2 6 -6 7 -16 3 -22z m-2157 -28 c2 -7 -3 -12
-12 -12 -9 0 -16 7 -16 16 0 17 22 14 28 -4z m102 -9 c0 23 12 21 33 -4 23
-26 32 -19 17 13 -11 22 -10 22 4 4 9 -11 16 -25 16 -32 0 -17 -17 -27 -25
-14 -4 6 -11 8 -16 4 -6 -4 -7 -10 0 -17 12 -16 2 -67 -15 -74 -9 -3 -12 -14
-8 -29 4 -17 1 -26 -10 -30 -11 -4 -14 -13 -9 -31 5 -24 4 -25 -23 -19 l-29 6
30 -25 c17 -14 27 -25 23 -25 -18 0 -118 44 -118 52 0 6 7 7 15 4 8 -3 22 -9
30 -12 11 -5 14 -2 8 11 -5 16 -2 17 26 12 29 -6 31 -5 21 13 -5 10 -15 22
-20 25 -14 9 -12 47 2 43 6 -2 14 -10 16 -18 3 -8 0 -10 -8 -5 -9 5 -11 4 -6
-4 4 -6 12 -9 17 -6 5 4 9 1 9 -6 0 -10 3 -10 11 -2 9 9 6 21 -11 48 -12 19
-19 42 -16 51 6 16 26 10 26 -7 0 -6 -5 -7 -12 -3 -7 4 -8 3 -4 -5 4 -6 12 -9
17 -6 5 4 9 1 9 -4 0 -6 5 -11 11 -11 22 0 -1 55 -36 86 -19 17 -32 34 -28 38
4 3 17 -4 30 -16 19 -18 23 -19 23 -5z m140 -8 c0 -8 -7 -15 -15 -15 -8 0 -15
7 -15 15 0 8 7 15 15 15 8 0 15 -7 15 -15z m508 3 c-6 -18 -28 -21 -28 -4 0 9
7 16 16 16 9 0 14 -5 12 -12z m1417 -18 c-5 -8 -11 -8 -17 -2 -6 6 -7 16 -3
22 5 8 11 8 17 2 6 -6 7 -16 3 -22z m-2210 -30 c-5 -8 -11 -8 -17 -2 -6 6 -7
16 -3 22 5 8 11 8 17 2 6 -6 7 -16 3 -22z m295 -15 c0 -8 -7 -15 -15 -15 -8 0
-15 7 -15 15 0 8 7 15 15 15 8 0 15 -7 15 -15z m492 0 c0 -5 -5 -11 -11 -13
-6 -2 -11 4 -11 13 0 9 5 15 11 13 6 -2 11 -8 11 -13z m1383 -15 c-5 -8 -11
-8 -17 -2 -6 6 -7 16 -3 22 5 8 11 8 17 2 6 -6 7 -16 3 -22z m55 4 c0 -17 -22
-14 -28 4 -2 7 3 12 12 12 9 0 16 -7 16 -16z m-2235 -22 c0 -18 -20 -15 -23 4
-3 10 1 15 10 12 7 -3 13 -10 13 -16z m2135 -7 c0 -8 -7 -15 -15 -15 -8 0 -15
7 -15 15 0 8 7 15 15 15 8 0 15 -7 15 -15z m-1706 -17 c9 -12 16 -30 16 -40 0
-10 14 -25 30 -33 56 -29 22 -32 -37 -4 -32 16 -60 24 -61 18 -2 -5 -8 -7 -13
-3 -10 6 -12 67 -2 77 14 15 53 6 67 -15z m376 8 c0 -18 -16 -29 -30 -21 -13
8 -1 35 16 35 8 0 14 -6 14 -14z m-485 -5 c7 -12 -12 -24 -25 -16 -11 7 -4 25
10 25 5 0 11 -4 15 -9z m545 -6 c0 -8 -7 -15 -15 -15 -8 0 -15 7 -15 15 0 8 7
15 15 15 8 0 15 -7 15 -15z m1396 4 c10 -17 -13 -36 -27 -22 -12 12 -4 33 11
33 5 0 12 -5 16 -11z m-1336 -14 c0 -8 -7 -15 -15 -15 -16 0 -20 12 -8 23 11
12 23 8 23 -8z m1158 -3 c2 -7 -3 -12 -12 -12 -9 0 -16 7 -16 16 0 17 22 14
28 -4z m-1103 -22 c-5 -8 -11 -8 -17 -2 -6 6 -7 16 -3 22 5 8 11 8 17 2 6 -6
7 -16 3 -22z m-1000 -10 c-5 -8 -11 -8 -17 -2 -6 6 -7 16 -3 22 5 8 11 8 17 2
6 -6 7 -16 3 -22z m2040 0 c-5 -8 -11 -8 -17 -2 -6 6 -7 16 -3 22 5 8 11 8 17
2 6 -6 7 -16 3 -22z m-975 4 c0 -9 -5 -14 -12 -12 -18 6 -21 28 -4 28 9 0 16
-7 16 -16z m60 -9 c0 -8 -7 -15 -15 -15 -16 0 -20 12 -8 23 11 12 23 8 23 -8z
m860 0 c0 -8 -7 -15 -15 -15 -8 0 -15 7 -15 15 0 8 7 15 15 15 8 0 15 -7 15
-15z m-1630 -10 c0 -8 -7 -15 -15 -15 -8 0 -15 7 -15 15 0 8 7 15 15 15 8 0
15 -7 15 -15z m460 0 c0 -8 -7 -15 -15 -15 -16 0 -20 12 -8 23 11 12 23 8 23
-8z m375 5 c3 -6 -1 -13 -10 -16 -19 -8 -30 0 -20 15 8 14 22 14 30 1z m1113
-8 c2 -7 -3 -12 -12 -12 -9 0 -16 7 -16 16 0 17 22 14 28 -4z m-1053 -1 c7
-12 -12 -24 -25 -16 -11 7 -4 25 10 25 5 0 11 -4 15 -9z m675 -7 c0 -9 -5 -14
-12 -12 -18 6 -21 28 -4 28 9 0 16 -7 16 -16z m-612 -6 c-6 -18 -28 -21 -28
-4 0 9 7 16 16 16 9 0 14 -5 12 -12z m62 -9 c0 -5 -7 -9 -15 -9 -15 0 -20 12
-9 23 8 8 24 -1 24 -14z m490 6 c0 -8 -7 -15 -15 -15 -16 0 -20 12 -8 23 11
12 23 8 23 -8z m980 0 c0 -8 -7 -15 -15 -15 -16 0 -20 12 -8 23 11 12 23 8 23
-8z m-2855 -25 c-5 -8 -11 -8 -17 -2 -6 6 -7 16 -3 22 5 8 11 8 17 2 6 -6 7
-16 3 -22z m1445 15 c0 -8 -7 -15 -15 -15 -8 0 -15 7 -15 15 0 8 7 15 15 15 8
0 15 -7 15 -15z m245 -15 c-5 -8 -11 -8 -17 -2 -6 6 -7 16 -3 22 5 8 11 8 17
2 6 -6 7 -16 3 -22z m65 15 c0 -8 -7 -15 -15 -15 -8 0 -15 7 -15 15 0 8 7 15
15 15 8 0 15 -7 15 -15z m60 0 c0 -8 -7 -15 -15 -15 -8 0 -15 7 -15 15 0 8 7
15 15 15 8 0 15 -7 15 -15z m-310 -11 c0 -17 -22 -14 -28 4 -2 7 3 12 12 12 9
0 16 -7 16 -16z m60 1 c0 -8 -4 -15 -9 -15 -13 0 -22 16 -14 24 11 11 23 6 23
-9z m65 6 c7 -12 -12 -24 -25 -16 -11 7 -4 25 10 25 5 0 11 -4 15 -9z m-1250
-20 c7 -12 -12 -24 -25 -16 -11 7 -4 25 10 25 5 0 11 -4 15 -9z m440 -21 c-5
-8 -11 -8 -17 -2 -6 6 -7 16 -3 22 5 8 11 8 17 2 6 -6 7 -16 3 -22z m1515 15
c0 -8 -7 -15 -15 -15 -8 0 -15 7 -15 15 0 8 7 15 15 15 8 0 15 -7 15 -15z
m470 0 c0 -8 -7 -15 -15 -15 -8 0 -15 7 -15 15 0 8 7 15 15 15 8 0 15 -7 15
-15z m-2132 -23 c2 -7 -3 -12 -12 -12 -9 0 -16 7 -16 16 0 17 22 14 28 -4z
m-58 -7 c0 -8 -7 -15 -15 -15 -8 0 -15 7 -15 15 0 8 7 15 15 15 8 0 15 -7 15
-15z m2138 3 c-6 -18 -28 -21 -28 -4 0 9 7 16 16 16 9 0 14 -5 12 -12z m-2758
-14 c0 -9 -5 -14 -12 -12 -18 6 -21 28 -4 28 9 0 16 -7 16 -16z m106 5 c5 -8
-1 -10 -20 -7 -34 7 -41 -5 -16 -27 26 -23 120 -34 120 -13 0 8 -6 20 -12 27
-11 11 -10 13 2 9 8 -3 16 -17 18 -31 4 -34 -26 -48 -77 -36 -42 9 -86 51 -78
73 7 18 52 22 63 5z m632 -7 c2 -7 -3 -12 -12 -12 -9 0 -16 7 -16 16 0 17 22
14 28 -4z m923 8 c23 -13 25 -33 5 -49 -10 -8 -13 -23 -9 -45 5 -34 -6 -49
-43 -58 -43 -11 -50 5 -30 67 10 31 15 59 12 62 -9 9 14 33 31 33 8 0 23 -5
34 -10z m-1101 -14 c0 -8 -4 -17 -9 -21 -12 -7 -24 12 -16 25 9 15 25 12 25
-4z m1216 -8 c-3 -13 -9 -40 -12 -61 -6 -34 -24 -63 -24 -38 0 8 -6 7 -19 -1
-15 -9 -23 -9 -35 1 -9 8 -16 17 -16 21 0 17 37 53 48 46 13 -8 5 -36 -10 -36
-5 0 -6 5 -2 12 4 6 3 8 -4 5 -15 -10 -7 -43 9 -39 22 5 37 30 44 73 4 21 11
39 17 39 6 0 8 -10 4 -22z m30 -30 c-11 -77 -29 -98 -21 -23 7 60 11 75 22 75
3 0 2 -23 -1 -52z m569 43 c7 -12 -12 -24 -25 -16 -11 7 -4 25 10 25 5 0 11
-4 15 -9z m323 -12 c-2 -6 -8 -10 -13 -10 -5 0 -11 4 -13 10 -2 6 4 11 13 11
9 0 15 -5 13 -11z m-1877 -14 c-1 -15 -24 -12 -29 3 -3 9 2 13 12 10 10 -1 17
-7 17 -13z m1824 -6 c10 -15 -1 -23 -20 -15 -9 3 -13 10 -10 16 8 13 22 13 30
-1z m-1865 -8 c0 -14 -18 -23 -30 -16 -6 4 -8 11 -5 16 8 12 35 12 35 0z
m-785 -10 c7 -12 -12 -24 -25 -16 -11 7 -4 25 10 25 5 0 11 -4 15 -9z m530 0
c7 -12 -12 -24 -25 -16 -11 7 -4 25 10 25 5 0 11 -4 15 -9z m1308 -28 c-4 -27
-4 -27 11 -9 9 11 16 26 16 33 0 7 5 13 11 13 6 0 9 -6 6 -13 -3 -8 -8 -39
-12 -70 -4 -32 -11 -57 -17 -57 -5 0 -6 16 -2 36 4 24 3 35 -3 31 -17 -11 -34
19 -27 47 8 34 23 25 17 -11z m755 19 c2 -7 -3 -12 -12 -12 -9 0 -16 7 -16 16
0 17 22 14 28 -4z m-1894 -18 c20 -20 20 -34 1 -34 -8 0 -15 -4 -15 -10 0 -5
6 -10 14 -10 20 0 14 -59 -7 -75 -12 -8 -14 -15 -8 -20 6 -3 11 -15 11 -26 0
-16 -6 -20 -26 -17 -38 4 -55 35 -30 54 16 11 17 17 8 26 -17 17 -15 38 3 38
8 0 15 -5 15 -11 0 -5 -6 -7 -12 -3 -9 5 -9 2 1 -9 20 -25 43 -22 39 6 -2 18
-12 24 -55 31 -29 5 -53 13 -53 18 0 5 13 7 30 3 25 -6 29 -4 23 10 -5 15 -1
16 25 10 35 -7 44 7 15 24 -10 6 -13 11 -6 11 6 0 19 -7 27 -16z m1836 1 c0
-8 -7 -15 -15 -15 -8 0 -15 7 -15 15 0 8 7 15 15 15 8 0 15 -7 15 -15z m216
-15 c-33 -13 -36 -17 -23 -28 10 -9 28 -11 53 -6 26 5 35 4 30 -5 -4 -6 -16
-11 -27 -11 -11 0 -22 -7 -25 -15 -4 -10 -13 -13 -25 -10 -10 3 -28 1 -39 -5
-30 -16 -36 -6 -11 19 27 27 27 45 1 37 -11 -3 -29 -9 -40 -12 -11 -4 -20 -2
-20 4 0 6 14 13 30 17 17 4 30 11 30 17 0 6 3 9 6 5 3 -3 22 0 42 8 50 17 65
5 18 -15z m-1946 -5 c0 -8 -7 -15 -15 -15 -16 0 -20 12 -8 23 11 12 23 8 23
-8z m-305 -4 c7 -12 -12 -24 -25 -16 -11 7 -4 25 10 25 5 0 11 -4 15 -9z
m-510 -10 c7 -12 -12 -24 -25 -16 -11 7 -4 25 10 25 5 0 11 -4 15 -9z m-10
-60 c7 -12 -12 -24 -25 -16 -11 7 -4 25 10 25 5 0 11 -4 15 -9z m2800 -45 c1
-15 9 -34 19 -42 20 -14 15 -51 -5 -38 -8 4 -7 9 2 15 10 6 6 9 -13 9 -18 0
-28 -5 -28 -15 0 -19 51 -45 89 -45 16 0 33 -5 36 -11 5 -7 -7 -9 -39 -6 -26
3 -46 1 -46 -4 0 -6 6 -9 14 -7 8 2 14 -1 13 -7 -1 -5 -12 -9 -24 -7 -27 3
-29 -6 -5 -25 15 -13 14 -13 -7 -1 -30 18 -39 38 -17 38 21 0 20 16 -1 29 -10
6 -14 11 -9 11 5 0 1 9 -9 20 -17 19 -17 21 -1 39 16 18 16 19 -9 25 -27 7
-35 40 -12 50 30 12 52 1 52 -28z m-2820 -15 c7 -12 -12 -24 -25 -16 -11 7 -4
25 10 25 5 0 11 -4 15 -9z m666 -41 c5 0 17 -8 27 -17 10 -10 27 -23 38 -30
16 -10 14 -12 -20 -10 -48 2 -57 -16 -16 -33 16 -7 30 -16 30 -21 0 -13 -11
-11 -45 9 -76 44 -95 58 -95 70 0 9 9 7 29 -7 37 -27 41 -26 41 2 0 15 -9 29
-25 37 -14 7 -25 20 -25 27 0 11 7 9 26 -6 15 -12 31 -21 35 -21z"/>
<path d="M2656 2714 c-4 -9 -4 -19 -2 -21 8 -8 26 8 26 23 0 19 -16 18 -24 -2z"/>
<path d="M1530 2395 c0 -9 5 -15 11 -13 6 2 11 8 11 13 0 5 -5 11 -11 13 -6 2
-11 -4 -11 -13z"/>
<path d="M1562 2374 c-11 -12 -9 -14 8 -14 11 0 20 4 20 9 0 17 -15 19 -28 5z"/>
<path d="M3650 2369 c0 -31 0 -32 20 -14 11 10 20 19 20 21 0 2 -9 8 -20 14
-18 10 -20 8 -20 -21z"/>
<path d="M2640 2434 c-14 -36 -13 -39 10 -19 21 19 27 45 10 45 -6 0 -15 -12
-20 -26z"/>
<path d="M2740 2316 c0 -27 28 -43 36 -21 9 21 -3 45 -21 45 -9 0 -15 -9 -15
-24z"/>
<path d="M2710 2262 c0 -10 5 -24 10 -32 8 -13 12 -12 30 5 l20 21 -30 11
c-26 10 -30 9 -30 -5z"/>
<path d="M3773 2243 c-12 -2 -27 -11 -33 -18 -10 -12 -8 -16 12 -24 33 -12 76
-2 89 20 7 15 6 19 -5 19 -8 0 -20 2 -28 4 -7 2 -23 1 -35 -1z"/>
<path d="M1062 2003 c2 -26 8 -38 18 -38 24 0 24 48 0 63 -20 12 -21 11 -18
-25z"/>
<path d="M971 1910 c10 -28 39 -43 39 -19 0 20 -21 49 -35 49 -11 0 -12 -6 -4
-30z"/>
<path d="M890 1853 c0 -4 5 -15 10 -23 8 -13 10 -13 10 2 0 9 -4 20 -10 23 -5
3 -10 3 -10 -2z"/>
<path d="M2327 1888 c-22 -57 -23 -64 -8 -74 22 -17 66 10 86 52 19 40 19 49
-1 68 -31 31 -50 19 -77 -46z"/>
<path d="M850 1720 c0 -5 7 -10 16 -10 8 0 12 5 9 10 -3 6 -10 10 -16 10 -5 0
-9 -4 -9 -10z"/>
<path d="M1520 1625 c0 -17 63 -47 69 -33 5 14 -30 48 -51 48 -10 0 -18 -7
-18 -15z"/>
<path d="M2740 1449 c-16 -37 -10 -43 18 -23 25 17 29 39 8 47 -9 4 -19 -5
-26 -24z"/>
<path d="M2716 1374 c-4 -15 -4 -29 -1 -32 10 -11 40 14 43 37 5 33 -34 28
-42 -5z"/>
<path d="M1750 1240 c0 -5 6 -10 14 -10 8 0 16 -6 19 -12 2 -7 8 -10 12 -5 5
4 0 14 -11 22 -23 17 -34 19 -34 5z"/>
<path d="M3840 1260 c0 -5 5 -10 10 -10 6 0 10 5 10 10 0 6 -4 10 -10 10 -5 0
-10 -4 -10 -10z"/>
<path d="M3870 1260 c0 -5 5 -10 10 -10 6 0 10 5 10 10 0 6 -4 10 -10 10 -5 0
-10 -4 -10 -10z"/>
<path d="M1772 2730 c0 -14 2 -19 5 -12 2 6 2 18 0 25 -3 6 -5 1 -5 -13z"/>
<path d="M3999 2686 c-20 -7 -53 -23 -73 -36 l-37 -22 27 -29 c24 -25 30 -27
43 -15 28 24 79 46 107 46 l28 0 -32 -33 c-20 -20 -35 -48 -39 -70 -14 -88
106 -118 185 -45 17 17 22 33 22 69 0 43 2 47 21 42 11 -3 36 -20 55 -38 19
-18 34 -29 34 -26 0 15 -67 71 -101 85 -19 8 -42 23 -50 32 -20 24 -88 54
-124 53 -16 0 -46 -6 -66 -13z m167 -111 c31 -48 -11 -93 -77 -83 -35 5 -38
50 -5 83 32 32 61 32 82 0z"/>
<path d="M1670 2646 c0 -8 9 -24 19 -37 17 -21 20 -22 26 -7 4 9 2 26 -5 37
-12 24 -40 28 -40 7z"/>
<path d="M700 2060 c-48 -8 -248 -65 -256 -73 -10 -9 9 -34 50 -64 l43 -31 53
26 c28 14 76 28 106 30 47 4 54 7 54 26 0 11 3 38 6 59 4 20 3 36 -2 36 -5 -1
-29 -5 -54 -9z"/>
<path d="M2015 1376 c-16 -7 -38 -22 -47 -33 -17 -18 -16 -21 4 -62 14 -29 23
-69 26 -120 3 -66 0 -89 -28 -171 -17 -52 -43 -110 -56 -128 -29 -37 -23 -63
7 -36 18 16 19 16 19 -5 0 -20 3 -22 33 -16 17 4 47 16 65 27 30 19 32 19 32
2 0 -16 4 -14 27 9 24 24 27 34 24 75 -12 134 -8 162 42 282 27 63 49 122 50
130 1 10 -19 22 -63 37 -75 26 -94 27 -135 9z"/>
<path d="M3386 1323 c-33 -13 -123 -42 -200 -63 -90 -25 -145 -45 -154 -57 -7
-10 -21 -45 -30 -78 -14 -50 -28 -72 -94 -142 -72 -76 -90 -103 -70 -103 4 0
18 7 30 16 27 19 27 14 2 -29 l-21 -35 23 -6 c66 -17 165 4 201 42 13 15 32
52 42 82 26 82 49 113 125 172 39 29 85 73 102 98 18 25 50 64 72 88 21 23 37
42 35 41 -2 0 -31 -12 -63 -26z"/>
</g>
</svg>
